<?xml version="1.0" encoding="UTF-8" standalone="no"?>
<!DOCTYPE svg PUBLIC "-//W3C//DTD SVG 1.1//EN"
 "http://www.w3.org/Graphics/SVG/1.1/DTD/svg11.dtd">
<!-- Generated by graphviz version 2.43.0 (0)
 -->
<!-- Title: exemplePlaceRessource Pages: 1 -->
<svg width="348pt" height="169pt"
 viewBox="0.00 0.00 347.67 169.00" xmlns="http://www.w3.org/2000/svg" xmlns:xlink="http://www.w3.org/1999/xlink">
<g id="graph0" class="graph" transform="scale(1 1) rotate(0) translate(4 165)">
<title>exemplePlaceRessource</title>
<polygon fill="white" stroke="transparent" points="-4,4 -4,-165 343.67,-165 343.67,4 -4,4"/>
<text text-anchor="middle" x="169.84" y="-7.8" font-family="Times,serif" font-size="14.00">exemplePlaceRessource</text>
<!-- Ordinateurs -->
<g id="node1" class="node">
<title>Ordinateurs</title>
<polygon fill="none" stroke="black" points="104.67,-146 9.83,-128 104.67,-110 199.52,-128 104.67,-146"/>
<text text-anchor="middle" x="104.67" y="-124.3" font-family="Times,serif" font-size="14.00">Ordinateurs</text>
<text text-anchor="middle" x="5" y="-149.8" font-family="Times,serif" font-size="14.00">5</text>
</g>
<!-- Programmer -->
<g id="node2" class="node">
<title>Programmer</title>
<ellipse fill="none" stroke="black" cx="189.67" cy="-41" rx="69.59" ry="18"/>
<text text-anchor="middle" x="189.67" y="-37.3" font-family="Times,serif" font-size="14.00">Programmer</text>
</g>
<!-- Ordinateurs&#45;&gt;Programmer -->
<g id="edge1" class="edge">
<title>Ordinateurs&#45;&gt;Programmer</title>
<path fill="none" stroke="black" d="M119.09,-112.58C131.49,-100.19 149.65,-82.02 164.45,-67.23"/>
<polygon fill="black" stroke="black" points="164.66,-67.02 166.07,-59.94 173.14,-58.53 171.73,-65.6 164.66,-67.02"/>
<text text-anchor="middle" x="157.67" y="-80.8" font-family="Times,serif" font-size="14.00">2</text>
</g>
<!-- Concevoir -->
<g id="node3" class="node">
<title>Concevoir</title>
<ellipse fill="none" stroke="black" cx="274.67" cy="-128" rx="57.39" ry="18"/>
<text text-anchor="middle" x="274.67" y="-124.3" font-family="Times,serif" font-size="14.00">Concevoir</text>
</g>
<!-- Concevoir&#45;&gt;Programmer -->
<g id="edge2" class="edge">
<title>Concevoir&#45;&gt;Programmer</title>
<path fill="none" stroke="black" d="M258.28,-110.61C245.55,-97.88 227.71,-80.03 213.41,-65.74"/>
<polygon fill="black" stroke="black" points="206.3,-58.63 216.55,-62.52 209.84,-62.16 213.37,-65.7 213.37,-65.7 213.37,-65.7 209.84,-62.16 210.19,-68.88 206.3,-58.63 206.3,-58.63"/>
<text text-anchor="middle" x="288.67" y="-80.8" font-family="Times,serif" font-size="14.00">finishToFinish</text>
</g>
</g>
</svg>
