<?xml version="1.0" encoding="UTF-8" standalone="no"?>
<!DOCTYPE svg PUBLIC "-//W3C//DTD SVG 1.1//EN"
 "http://www.w3.org/Graphics/SVG/1.1/DTD/svg11.dtd">
<!-- Generated by graphviz version 2.43.0 (0)
 -->
<!-- Title: exemplePlaceRessource Pages: 1 -->
<svg width="298pt" height="154pt"
 viewBox="0.00 0.00 297.79 154.00" xmlns="http://www.w3.org/2000/svg" xmlns:xlink="http://www.w3.org/1999/xlink">
<g id="graph0" class="graph" transform="scale(1 1) rotate(0) translate(4 150)">
<title>exemplePlaceRessource</title>
<polygon fill="white" stroke="transparent" points="-4,4 -4,-150 293.79,-150 293.79,4 -4,4"/>
<text text-anchor="middle" x="144.9" y="-7.8" font-family="Times,serif" font-size="14.00">exemplePlaceRessource</text>
<!-- Ordinateurs5 -->
<g id="node1" class="node">
<title>Ordinateurs5</title>
<ellipse fill="none" stroke="black" cx="72.79" cy="-128" rx="72.59" ry="18"/>
<text text-anchor="middle" x="72.79" y="-124.3" font-family="Times,serif" font-size="14.00">Ordinateurs5</text>
</g>
<!-- Programmer -->
<g id="node2" class="node">
<title>Programmer</title>
<ellipse fill="none" stroke="black" cx="146.79" cy="-41" rx="69.59" ry="18"/>
<text text-anchor="middle" x="146.79" y="-37.3" font-family="Times,serif" font-size="14.00">Programmer</text>
</g>
<!-- Ordinateurs5&#45;&gt;Programmer -->
<g id="edge1" class="edge">
<title>Ordinateurs5&#45;&gt;Programmer</title>
<path fill="none" stroke="black" d="M87.41,-110.21C97.85,-98.22 112.1,-81.85 124.02,-68.16"/>
<polygon fill="black" stroke="black" points="124.32,-67.81 125.25,-60.66 132.2,-58.76 131.28,-65.91 124.32,-67.81"/>
<text text-anchor="middle" x="119.79" y="-80.8" font-family="Times,serif" font-size="14.00">2</text>
</g>
<!-- Concevoir -->
<g id="node3" class="node">
<title>Concevoir</title>
<ellipse fill="none" stroke="black" cx="220.79" cy="-128" rx="57.39" ry="18"/>
<text text-anchor="middle" x="220.79" y="-124.3" font-family="Times,serif" font-size="14.00">Concevoir</text>
</g>
<!-- Concevoir&#45;&gt;Programmer -->
<g id="edge2" class="edge">
<title>Concevoir&#45;&gt;Programmer</title>
<path fill="none" stroke="black" d="M206.17,-110.21C195.33,-97.75 180.38,-80.57 168.19,-66.57"/>
<polygon fill="black" stroke="black" points="161.38,-58.76 171.34,-63.35 164.67,-62.53 167.95,-66.3 167.95,-66.3 167.95,-66.3 164.67,-62.53 164.56,-69.26 161.38,-58.76 161.38,-58.76"/>
<text text-anchor="middle" x="238.79" y="-80.8" font-family="Times,serif" font-size="14.00">finishToFinish</text>
</g>
</g>
</svg>
