<?xml version="1.0" encoding="UTF-8" standalone="no"?>
<!DOCTYPE svg PUBLIC "-//W3C//DTD SVG 1.1//EN"
 "http://www.w3.org/Graphics/SVG/1.1/DTD/svg11.dtd">
<!-- Generated by graphviz version 2.43.0 (0)
 -->
<!-- Title: ex1 Pages: 1 -->
<svg width="299pt" height="343pt"
 viewBox="0.00 0.00 299.47 343.00" xmlns="http://www.w3.org/2000/svg" xmlns:xlink="http://www.w3.org/1999/xlink">
<g id="graph0" class="graph" transform="scale(1 1) rotate(0) translate(4 339)">
<title>ex1</title>
<polygon fill="white" stroke="transparent" points="-4,4 -4,-339 295.47,-339 295.47,4 -4,4"/>
<text text-anchor="middle" x="145.74" y="-7.8" font-family="Times,serif" font-size="14.00">ex1</text>
<!-- Humains -->
<g id="node1" class="node">
<title>Humains</title>
<polygon fill="none" stroke="black" points="102,-320 28.43,-302 102,-284 175.57,-302 102,-320"/>
<text text-anchor="middle" x="102" y="-298.3" font-family="Times,serif" font-size="14.00">Humains</text>
<text text-anchor="middle" x="23.47" y="-323.8" font-family="Times,serif" font-size="14.00">5</text>
</g>
<!-- a -->
<g id="node3" class="node">
<title>a</title>
<ellipse fill="none" stroke="black" cx="44" cy="-215" rx="27" ry="18"/>
<text text-anchor="middle" x="44" y="-211.3" font-family="Times,serif" font-size="14.00">a</text>
</g>
<!-- Humains&#45;&gt;a -->
<g id="edge1" class="edge">
<title>Humains&#45;&gt;a</title>
<path fill="none" stroke="black" d="M91.9,-286.19C83.54,-273.95 71.47,-256.26 61.54,-241.71"/>
<polygon fill="black" stroke="black" points="61.54,-241.7 54.85,-239 54.77,-231.79 61.46,-234.49 61.54,-241.7"/>
<text text-anchor="middle" x="82" y="-254.8" font-family="Times,serif" font-size="14.00">5</text>
</g>
<!-- b -->
<g id="node4" class="node">
<title>b</title>
<ellipse fill="none" stroke="black" cx="159" cy="-128" rx="27" ry="18"/>
<text text-anchor="middle" x="159" y="-124.3" font-family="Times,serif" font-size="14.00">b</text>
</g>
<!-- Humains&#45;&gt;b -->
<g id="edge2" class="edge">
<title>Humains&#45;&gt;b</title>
<path fill="none" stroke="black" d="M108.43,-285.41C117.75,-262.4 135.21,-217.89 147,-179 149.04,-172.27 150.96,-164.95 152.64,-158.04"/>
<polygon fill="black" stroke="black" points="152.66,-157.95 150.13,-151.2 155.38,-146.26 157.92,-153.01 152.66,-157.95"/>
<text text-anchor="middle" x="146" y="-211.3" font-family="Times,serif" font-size="14.00">5</text>
</g>
<!-- Ordis -->
<g id="node2" class="node">
<title>Ordis</title>
<polygon fill="none" stroke="black" points="240,-233 188.55,-215 240,-197 291.45,-215 240,-233"/>
<text text-anchor="middle" x="240" y="-211.3" font-family="Times,serif" font-size="14.00">Ordis</text>
<text text-anchor="middle" x="183.53" y="-236.8" font-family="Times,serif" font-size="14.00">5</text>
</g>
<!-- Ordis&#45;&gt;b -->
<g id="edge3" class="edge">
<title>Ordis&#45;&gt;b</title>
<path fill="none" stroke="black" d="M227.7,-201.09C215.53,-188.32 196.62,-168.48 181.72,-152.84"/>
<polygon fill="black" stroke="black" points="181.33,-152.44 174.3,-150.85 173.05,-143.75 180.09,-145.33 181.33,-152.44"/>
<text text-anchor="middle" x="209" y="-167.8" font-family="Times,serif" font-size="14.00">2</text>
</g>
<!-- a&#45;&gt;b -->
<g id="edge4" class="edge">
<title>a&#45;&gt;b</title>
<path fill="none" stroke="black" d="M39.52,-196.96C37.81,-186.37 37.75,-173.1 45,-164 65.56,-138.21 85.64,-156.21 117,-146 120.39,-144.89 123.9,-143.65 127.38,-142.34"/>
<polygon fill="black" stroke="black" points="136.98,-138.59 129.31,-146.42 132.32,-140.41 127.67,-142.23 127.67,-142.23 127.67,-142.23 132.32,-140.41 126.03,-138.04 136.98,-138.59 136.98,-138.59"/>
<text text-anchor="middle" x="96" y="-167.8" font-family="Times,serif" font-size="14.00">finishToFinish</text>
</g>
<!-- c -->
<g id="node5" class="node">
<title>c</title>
<ellipse fill="none" stroke="black" cx="27" cy="-41" rx="27" ry="18"/>
<text text-anchor="middle" x="27" y="-37.3" font-family="Times,serif" font-size="14.00">c</text>
</g>
<!-- b&#45;&gt;c -->
<g id="edge5" class="edge">
<title>b&#45;&gt;c</title>
<path fill="none" stroke="black" d="M140.09,-114.82C117.64,-100.37 80.03,-76.15 54.4,-59.64"/>
<polygon fill="black" stroke="black" points="45.88,-54.16 56.72,-55.79 50.08,-56.86 54.28,-59.57 54.28,-59.57 54.28,-59.57 50.08,-56.86 51.85,-63.35 45.88,-54.16 45.88,-54.16"/>
<text text-anchor="middle" x="151" y="-80.8" font-family="Times,serif" font-size="14.00">finishToFinish</text>
</g>
<!-- c&#45;&gt;a -->
<g id="edge6" class="edge">
<title>c&#45;&gt;a</title>
<path fill="none" stroke="black" d="M23.73,-59.05C20.29,-79.76 16.01,-115.66 21,-146 23.36,-160.36 28.36,-175.77 33.09,-188.28"/>
<polygon fill="black" stroke="black" points="36.77,-197.62 28.92,-189.97 34.94,-192.97 33.1,-188.32 33.1,-188.32 33.1,-188.32 34.94,-192.97 37.29,-186.67 36.77,-197.62 36.77,-197.62"/>
<text text-anchor="middle" x="72" y="-124.3" font-family="Times,serif" font-size="14.00">finishToFinish</text>
</g>
</g>
</svg>
