<?xml version="1.0" encoding="UTF-8" standalone="no"?>
<!DOCTYPE svg PUBLIC "-//W3C//DTD SVG 1.1//EN"
 "http://www.w3.org/Graphics/SVG/1.1/DTD/svg11.dtd">
<!-- Generated by graphviz version 12.1.0 (0)
 -->
<!-- Title: ExempleSujetRessources Pages: 1 -->
<svg width="948pt" height="354pt"
 viewBox="0.00 0.00 947.95 354.25" xmlns="http://www.w3.org/2000/svg" xmlns:xlink="http://www.w3.org/1999/xlink">
<g id="graph0" class="graph" transform="scale(1 1) rotate(0) translate(4 350.25)">
<title>ExempleSujetRessources</title>
<polygon fill="white" stroke="none" points="-4,4 -4,-350.25 943.95,-350.25 943.95,4 -4,4"/>
<text text-anchor="middle" x="469.98" y="-7.95" font-family="Times,serif" font-size="14.00">ExempleSujetRessources</text>
<!-- concepteur -->
<g id="node1" class="node">
<title>concepteur</title>
<polygon fill="none" stroke="black" points="103.74,-329 9,-311 103.74,-293 198.48,-311 103.74,-329"/>
<text text-anchor="middle" x="103.74" y="-306.32" font-family="Times,serif" font-size="14.00">concepteur</text>
<text text-anchor="middle" x="4.5" y="-332.95" font-family="Times,serif" font-size="14.00">3</text>
</g>
<!-- Conception -->
<g id="node6" class="node">
<title>Conception</title>
<ellipse fill="none" stroke="black" cx="410.74" cy="-221.75" rx="67.52" ry="18"/>
<text text-anchor="middle" x="410.74" y="-217.07" font-family="Times,serif" font-size="14.00">Conception</text>
</g>
<!-- concepteur&#45;&gt;Conception -->
<g id="edge6" class="edge">
<title>concepteur&#45;&gt;Conception</title>
<path fill="none" stroke="black" d="M140.47,-299.56C193.25,-284.56 291.06,-256.76 353.41,-239.04"/>
<polygon fill="black" stroke="black" points="353.36,-239.06 358.03,-233.57 364.9,-235.78 360.22,-241.27 353.36,-239.06"/>
<text text-anchor="middle" x="289.24" y="-261.7" font-family="Times,serif" font-size="14.00">2</text>
</g>
<!-- developpeur -->
<g id="node2" class="node">
<title>developpeur</title>
<polygon fill="none" stroke="black" points="645.74,-239.75 542.07,-221.75 645.74,-203.75 749.41,-221.75 645.74,-239.75"/>
<text text-anchor="middle" x="645.74" y="-217.07" font-family="Times,serif" font-size="14.00">developpeur</text>
<text text-anchor="middle" x="537.57" y="-243.7" font-family="Times,serif" font-size="14.00">2</text>
</g>
<!-- Programmation -->
<g id="node8" class="node">
<title>Programmation</title>
<ellipse fill="none" stroke="black" cx="629.74" cy="-132.5" rx="89.61" ry="18"/>
<text text-anchor="middle" x="629.74" y="-127.83" font-family="Times,serif" font-size="14.00">Programmation</text>
</g>
<!-- developpeur&#45;&gt;Programmation -->
<g id="edge10" class="edge">
<title>developpeur&#45;&gt;Programmation</title>
<path fill="none" stroke="black" d="M642.66,-203.93C640.56,-192.49 637.72,-177.04 635.24,-163.52"/>
<polygon fill="black" stroke="black" points="635.25,-163.56 630.24,-158.38 633.09,-151.75 638.1,-156.93 635.25,-163.56"/>
<text text-anchor="middle" x="643.67" y="-172.45" font-family="Times,serif" font-size="14.00">2</text>
</g>
<!-- machine -->
<g id="node3" class="node">
<title>machine</title>
<polygon fill="none" stroke="black" points="462.74,-329 387.34,-311 462.74,-293 538.14,-311 462.74,-329"/>
<text text-anchor="middle" x="462.74" y="-306.32" font-family="Times,serif" font-size="14.00">machine</text>
<text text-anchor="middle" x="382.84" y="-332.95" font-family="Times,serif" font-size="14.00">4</text>
</g>
<!-- machine&#45;&gt;Conception -->
<g id="edge7" class="edge">
<title>machine&#45;&gt;Conception</title>
<path fill="none" stroke="black" d="M453.68,-294.8C446.47,-282.71 436.18,-265.44 427.49,-250.85"/>
<polygon fill="black" stroke="black" points="427.54,-250.95 421.04,-247.84 421.4,-240.64 427.91,-243.74 427.54,-250.95"/>
<text text-anchor="middle" x="445.9" y="-261.7" font-family="Times,serif" font-size="14.00">2</text>
</g>
<!-- RedactionDoc -->
<g id="node7" class="node">
<title>RedactionDoc</title>
<ellipse fill="none" stroke="black" cx="184.74" cy="-132.5" rx="80.14" ry="18"/>
<text text-anchor="middle" x="184.74" y="-127.83" font-family="Times,serif" font-size="14.00">RedactionDoc</text>
</g>
<!-- machine&#45;&gt;RedactionDoc -->
<g id="edge8" class="edge">
<title>machine&#45;&gt;RedactionDoc</title>
<path fill="none" stroke="black" d="M405.76,-306.12C321.48,-299.05 169.93,-280.85 136.74,-239.75 117.36,-215.74 138.08,-182.65 158.01,-159.81"/>
<polygon fill="black" stroke="black" points="157.94,-159.89 159.06,-152.77 166.07,-151.07 164.95,-158.19 157.94,-159.89"/>
<text text-anchor="middle" x="141.24" y="-217.07" font-family="Times,serif" font-size="14.00">1</text>
</g>
<!-- machine&#45;&gt;Programmation -->
<g id="edge11" class="edge">
<title>machine&#45;&gt;Programmation</title>
<path fill="none" stroke="black" d="M468.95,-294C478.22,-271.71 497.43,-230.98 523.74,-203.75 534.28,-192.84 540.02,-194.01 552.74,-185.75 566.71,-176.68 581.92,-166.44 595.11,-157.44"/>
<polygon fill="black" stroke="black" points="594.99,-157.52 597.68,-150.83 604.89,-150.74 602.2,-157.43 594.99,-157.52"/>
<text text-anchor="middle" x="528.24" y="-217.07" font-family="Times,serif" font-size="14.00">3</text>
</g>
<!-- Redactiontests -->
<g id="node9" class="node">
<title>Redactiontests</title>
<ellipse fill="none" stroke="black" cx="719.74" cy="-43.25" rx="85.93" ry="18"/>
<text text-anchor="middle" x="719.74" y="-38.58" font-family="Times,serif" font-size="14.00">Redactiontests</text>
</g>
<!-- machine&#45;&gt;Redactiontests -->
<g id="edge12" class="edge">
<title>machine&#45;&gt;Redactiontests</title>
<path fill="none" stroke="black" d="M515.32,-305.07C591.9,-296.7 728.32,-276.88 758.74,-239.75 803.97,-184.54 794.75,-143.53 763.74,-79.25 762.01,-75.67 759.73,-72.35 757.1,-69.29"/>
<polygon fill="black" stroke="black" points="757.14,-69.33 750.04,-68.08 748.46,-61.04 755.57,-62.29 757.14,-69.33"/>
<text text-anchor="middle" x="794.28" y="-172.45" font-family="Times,serif" font-size="14.00">2</text>
</g>
<!-- redacteur -->
<g id="node4" class="node">
<title>redacteur</title>
<polygon fill="none" stroke="black" points="239.74,-239.75 154.67,-221.75 239.74,-203.75 324.81,-221.75 239.74,-239.75"/>
<text text-anchor="middle" x="239.74" y="-217.07" font-family="Times,serif" font-size="14.00">redacteur</text>
<text text-anchor="middle" x="150.17" y="-243.7" font-family="Times,serif" font-size="14.00">1</text>
</g>
<!-- redacteur&#45;&gt;RedactionDoc -->
<g id="edge9" class="edge">
<title>redacteur&#45;&gt;RedactionDoc</title>
<path fill="none" stroke="black" d="M202.87,-211.1C190.11,-205.8 177.17,-197.77 169.74,-185.75 165.38,-178.69 165.78,-170.32 168.19,-162.36"/>
<polygon fill="black" stroke="black" points="168.2,-162.34 166.86,-155.25 172.89,-151.29 174.23,-158.38 168.2,-162.34"/>
<text text-anchor="middle" x="174.24" y="-172.45" font-family="Times,serif" font-size="14.00">1</text>
</g>
<!-- testeur -->
<g id="node5" class="node">
<title>testeur</title>
<polygon fill="none" stroke="black" points="872.74,-150.5 805.53,-132.5 872.74,-114.5 939.95,-132.5 872.74,-150.5"/>
<text text-anchor="middle" x="872.74" y="-127.83" font-family="Times,serif" font-size="14.00">testeur</text>
<text text-anchor="middle" x="801.03" y="-154.45" font-family="Times,serif" font-size="14.00">2</text>
</g>
<!-- testeur&#45;&gt;Redactiontests -->
<g id="edge13" class="edge">
<title>testeur&#45;&gt;Redactiontests</title>
<path fill="none" stroke="black" d="M854.79,-119.03C838.63,-108.02 814.05,-91.81 791.74,-79.25 783.58,-74.66 774.73,-70.06 766.11,-65.77"/>
<polygon fill="black" stroke="black" points="766.2,-65.81 759.05,-66.78 755.41,-60.55 762.56,-59.59 766.2,-65.81"/>
<text text-anchor="middle" x="823.52" y="-83.2" font-family="Times,serif" font-size="14.00">1</text>
</g>
<!-- Conception&#45;&gt;RedactionDoc -->
<g id="edge1" class="edge">
<title>Conception&#45;&gt;RedactionDoc</title>
<path fill="none" stroke="black" d="M366.25,-207.9C349.12,-202.17 329.68,-194.68 312.99,-185.75 301.64,-179.68 301.15,-174.44 289.74,-168.5 276.09,-161.4 260.71,-155.31 246.02,-150.3"/>
<polygon fill="black" stroke="black" points="236.63,-147.23 247.53,-146.07 240.22,-148.41 246.13,-150.34 246.13,-150.34 246.13,-150.34 240.22,-148.41 244.73,-154.62 236.63,-147.23"/>
<text text-anchor="middle" x="362.87" y="-172.45" font-family="Times,serif" font-size="14.00">finishToFinish</text>
</g>
<!-- Conception&#45;&gt;RedactionDoc -->
<g id="edge2" class="edge">
<title>Conception&#45;&gt;RedactionDoc</title>
<path fill="none" stroke="black" d="M361.16,-209.15C352.07,-207.21 342.64,-205.32 333.74,-203.75 303.77,-198.46 220.72,-205.98 197.99,-185.75 191.16,-179.67 187.61,-170.62 185.84,-161.75"/>
<polygon fill="black" stroke="black" points="184.58,-152.06 190.33,-161.39 185.07,-155.81 185.87,-161.97 185.87,-161.97 185.87,-161.97 185.07,-155.81 181.4,-162.55 184.58,-152.06"/>
<text text-anchor="middle" x="241.87" y="-172.45" font-family="Times,serif" font-size="14.00">startToStart</text>
</g>
<!-- Conception&#45;&gt;Programmation -->
<g id="edge3" class="edge">
<title>Conception&#45;&gt;Programmation</title>
<path fill="none" stroke="black" d="M422.3,-204.03C431.33,-192.27 444.94,-177.13 460.49,-168.5 475.88,-159.95 512.73,-151.89 548.13,-145.66"/>
<polygon fill="black" stroke="black" points="557.84,-143.99 548.75,-150.12 554.12,-144.63 547.99,-145.68 547.99,-145.68 547.99,-145.68 554.12,-144.63 547.23,-141.25 557.84,-143.99"/>
<text text-anchor="middle" x="506.62" y="-172.45" font-family="Times,serif" font-size="14.00">finishToStart</text>
</g>
<!-- Conception&#45;&gt;Redactiontests -->
<g id="edge4" class="edge">
<title>Conception&#45;&gt;Redactiontests</title>
<path fill="none" stroke="black" d="M413.83,-203.61C418.99,-176.82 430.09,-126.81 442.99,-114.5 470.99,-87.76 567.89,-67.49 639.16,-55.76"/>
<polygon fill="black" stroke="black" points="648.72,-54.21 639.56,-60.25 644.99,-54.82 638.85,-55.81 638.85,-55.81 638.85,-55.81 644.99,-54.82 638.13,-51.37 648.72,-54.21"/>
<text text-anchor="middle" x="486.87" y="-127.83" font-family="Times,serif" font-size="14.00">startToStart</text>
</g>
<!-- Programmation&#45;&gt;Redactiontests -->
<g id="edge5" class="edge">
<title>Programmation&#45;&gt;Redactiontests</title>
<path fill="none" stroke="black" d="M638.59,-114.14C644.71,-103.26 653.61,-89.43 663.99,-79.25 668.64,-74.69 673.99,-70.42 679.49,-66.55"/>
<polygon fill="black" stroke="black" points="687.77,-61.08 681.9,-70.34 684.62,-63.16 679.43,-66.59 679.43,-66.59 679.43,-66.59 684.62,-63.16 676.95,-62.83 687.77,-61.08"/>
<text text-anchor="middle" x="713.87" y="-83.2" font-family="Times,serif" font-size="14.00">finishToFinish</text>
</g>
</g>
</svg>
