<?xml version="1.0" encoding="UTF-8" standalone="no"?>
<!DOCTYPE svg PUBLIC "-//W3C//DTD SVG 1.1//EN"
 "http://www.w3.org/Graphics/SVG/1.1/DTD/svg11.dtd">
<!-- Generated by graphviz version 2.43.0 (0)
 -->
<!-- Title: exemplePlaceRessource Pages: 1 -->
<svg width="287pt" height="131pt"
 viewBox="0.00 0.00 286.94 131.00" xmlns="http://www.w3.org/2000/svg" xmlns:xlink="http://www.w3.org/1999/xlink">
<g id="graph0" class="graph" transform="scale(1 1) rotate(0) translate(4 127)">
<title>exemplePlaceRessource</title>
<polygon fill="white" stroke="transparent" points="-4,4 -4,-127 282.94,-127 282.94,4 -4,4"/>
<!-- Ordinateurs -->
<g id="node1" class="node">
<title>Ordinateurs</title>
<ellipse fill="none" stroke="black" cx="66.94" cy="-105" rx="66.89" ry="18"/>
<text text-anchor="middle" x="66.94" y="-101.3" font-family="Times,serif" font-size="14.00">Ordinateurs</text>
</g>
<!-- Programmer -->
<g id="node2" class="node">
<title>Programmer</title>
<ellipse fill="none" stroke="black" cx="137.94" cy="-18" rx="69.59" ry="18"/>
<text text-anchor="middle" x="137.94" y="-14.3" font-family="Times,serif" font-size="14.00">Programmer</text>
</g>
<!-- Ordinateurs&#45;&gt;Programmer -->
<g id="edge1" class="edge">
<title>Ordinateurs&#45;&gt;Programmer</title>
<path fill="none" stroke="black" d="M80.97,-87.21C90.99,-75.22 104.66,-58.85 116.1,-45.16"/>
<polygon fill="black" stroke="black" points="116.25,-44.97 117.03,-37.8 123.95,-35.76 123.17,-42.93 116.25,-44.97"/>
<text text-anchor="middle" x="111.94" y="-57.8" font-family="Times,serif" font-size="14.00">2</text>
</g>
<!-- Concevoir -->
<g id="node3" class="node">
<title>Concevoir</title>
<ellipse fill="none" stroke="black" cx="208.94" cy="-105" rx="57.39" ry="18"/>
<text text-anchor="middle" x="208.94" y="-101.3" font-family="Times,serif" font-size="14.00">Concevoir</text>
</g>
<!-- Concevoir&#45;&gt;Programmer -->
<g id="edge2" class="edge">
<title>Concevoir&#45;&gt;Programmer</title>
<path fill="none" stroke="black" d="M194.92,-87.21C184.51,-74.75 170.16,-57.57 158.47,-43.57"/>
<polygon fill="black" stroke="black" points="151.94,-35.76 161.81,-40.55 155.15,-39.6 158.35,-43.43 158.35,-43.43 158.35,-43.43 155.15,-39.6 154.9,-46.32 151.94,-35.76 151.94,-35.76"/>
<text text-anchor="middle" x="227.94" y="-57.8" font-family="Times,serif" font-size="14.00">finishToFinish</text>
</g>
</g>
</svg>
