<?xml version="1.0" encoding="UTF-8" standalone="no"?>
<!DOCTYPE svg PUBLIC "-//W3C//DTD SVG 1.1//EN"
 "http://www.w3.org/Graphics/SVG/1.1/DTD/svg11.dtd">
<!-- Generated by graphviz version 2.43.0 (0)
 -->
<!-- Title: ex1 Pages: 1 -->
<svg width="286pt" height="343pt"
 viewBox="0.00 0.00 286.47 343.00" xmlns="http://www.w3.org/2000/svg" xmlns:xlink="http://www.w3.org/1999/xlink">
<g id="graph0" class="graph" transform="scale(1 1) rotate(0) translate(4 339)">
<title>ex1</title>
<polygon fill="white" stroke="transparent" points="-4,4 -4,-339 282.47,-339 282.47,4 -4,4"/>
<text text-anchor="middle" x="139.24" y="-7.8" font-family="Times,serif" font-size="14.00">ex1</text>
<!-- Humains -->
<g id="node1" class="node">
<title>Humains</title>
<polygon fill="none" stroke="black" points="96,-320 22.43,-302 96,-284 169.57,-302 96,-320"/>
<text text-anchor="middle" x="96" y="-298.3" font-family="Times,serif" font-size="14.00">Humains</text>
<text text-anchor="middle" x="17.47" y="-323.8" font-family="Times,serif" font-size="14.00">5</text>
</g>
<!-- a -->
<g id="node3" class="node">
<title>a</title>
<ellipse fill="none" stroke="black" cx="44" cy="-215" rx="27" ry="18"/>
<text text-anchor="middle" x="44" y="-211.3" font-family="Times,serif" font-size="14.00">a</text>
</g>
<!-- Humains&#45;&gt;a -->
<g id="edge1" class="edge">
<title>Humains&#45;&gt;a</title>
<path fill="none" stroke="black" d="M86.94,-286.19C79.57,-274.14 68.97,-256.82 60.15,-242.41"/>
<polygon fill="black" stroke="black" points="60.1,-242.32 53.56,-239.29 53.84,-232.08 60.38,-235.11 60.1,-242.32"/>
<text text-anchor="middle" x="79" y="-254.8" font-family="Times,serif" font-size="14.00">5</text>
</g>
<!-- b -->
<g id="node4" class="node">
<title>b</title>
<ellipse fill="none" stroke="black" cx="146" cy="-128" rx="27" ry="18"/>
<text text-anchor="middle" x="146" y="-124.3" font-family="Times,serif" font-size="14.00">b</text>
</g>
<!-- Humains&#45;&gt;b -->
<g id="edge2" class="edge">
<title>Humains&#45;&gt;b</title>
<path fill="none" stroke="black" d="M101.38,-284.92C109.08,-261.68 123.46,-217.28 134,-179 135.87,-172.22 137.72,-164.88 139.39,-157.97"/>
<polygon fill="black" stroke="black" points="139.41,-157.88 136.9,-151.12 142.17,-146.2 144.69,-152.95 139.41,-157.88"/>
<text text-anchor="middle" x="133" y="-211.3" font-family="Times,serif" font-size="14.00">5</text>
</g>
<!-- Ordis -->
<g id="node2" class="node">
<title>Ordis</title>
<polygon fill="none" stroke="black" points="227,-233 175.55,-215 227,-197 278.45,-215 227,-233"/>
<text text-anchor="middle" x="227" y="-211.3" font-family="Times,serif" font-size="14.00">Ordis</text>
<text text-anchor="middle" x="170.53" y="-236.8" font-family="Times,serif" font-size="14.00">5</text>
</g>
<!-- Ordis&#45;&gt;b -->
<g id="edge3" class="edge">
<title>Ordis&#45;&gt;b</title>
<path fill="none" stroke="black" d="M214.7,-201.09C202.53,-188.32 183.62,-168.48 168.72,-152.84"/>
<polygon fill="black" stroke="black" points="168.33,-152.44 161.3,-150.85 160.05,-143.75 167.09,-145.33 168.33,-152.44"/>
<text text-anchor="middle" x="196" y="-167.8" font-family="Times,serif" font-size="14.00">2</text>
</g>
<!-- a&#45;&gt;b -->
<g id="edge4" class="edge">
<title>a&#45;&gt;b</title>
<path fill="none" stroke="black" d="M39.68,-197.08C38.04,-186.54 37.98,-173.28 45,-164 61.53,-142.13 78.16,-155.15 104,-146 107.36,-144.81 110.86,-143.51 114.32,-142.17"/>
<polygon fill="black" stroke="black" points="123.91,-138.37 116.27,-146.24 119.26,-140.21 114.61,-142.05 114.61,-142.05 114.61,-142.05 119.26,-140.21 112.95,-137.87 123.91,-138.37 123.91,-138.37"/>
<text text-anchor="middle" x="89.5" y="-167.8" font-family="Times,serif" font-size="14.00">startToStart</text>
</g>
<!-- c -->
<g id="node5" class="node">
<title>c</title>
<ellipse fill="none" stroke="black" cx="27" cy="-41" rx="27" ry="18"/>
<text text-anchor="middle" x="27" y="-37.3" font-family="Times,serif" font-size="14.00">c</text>
</g>
<!-- b&#45;&gt;c -->
<g id="edge5" class="edge">
<title>b&#45;&gt;c</title>
<path fill="none" stroke="black" d="M128.18,-114.27C108.29,-100.07 75.91,-76.93 53.14,-60.67"/>
<polygon fill="black" stroke="black" points="44.94,-54.81 55.69,-56.96 49.01,-57.72 53.07,-60.62 53.07,-60.62 53.07,-60.62 49.01,-57.72 50.46,-64.29 44.94,-54.81 44.94,-54.81"/>
<text text-anchor="middle" x="144" y="-80.8" font-family="Times,serif" font-size="14.00">finishToFinish</text>
</g>
<!-- c&#45;&gt;a -->
<g id="edge6" class="edge">
<title>c&#45;&gt;a</title>
<path fill="none" stroke="black" d="M23.73,-59.05C20.29,-79.76 16.01,-115.66 21,-146 23.36,-160.36 28.36,-175.77 33.09,-188.28"/>
<polygon fill="black" stroke="black" points="36.77,-197.62 28.92,-189.97 34.94,-192.97 33.1,-188.32 33.1,-188.32 33.1,-188.32 34.94,-192.97 37.29,-186.67 36.77,-197.62 36.77,-197.62"/>
<text text-anchor="middle" x="65.5" y="-124.3" font-family="Times,serif" font-size="14.00">startToStart</text>
</g>
</g>
</svg>
