<?xml version="1.0" encoding="UTF-8" standalone="no"?>
<!DOCTYPE svg PUBLIC "-//W3C//DTD SVG 1.1//EN"
 "http://www.w3.org/Graphics/SVG/1.1/DTD/svg11.dtd">
<!-- Generated by graphviz version 2.43.0 (0)
 -->
<!-- Title: exemplePlaceRessource Pages: 1 -->
<svg width="707pt" height="548pt"
 viewBox="0.00 0.00 706.79 548.00" xmlns="http://www.w3.org/2000/svg" xmlns:xlink="http://www.w3.org/1999/xlink">
<g id="graph0" class="graph" transform="scale(1 1) rotate(0) translate(4 544)">
<title>exemplePlaceRessource</title>
<polygon fill="white" stroke="transparent" points="-4,4 -4,-544 702.79,-544 702.79,4 -4,4"/>
<text text-anchor="middle" x="349.4" y="-7.8" font-family="Times,serif" font-size="14.00">exemplePlaceRessource</text>
<!-- Programmer_ready -->
<g id="node1" class="node">
<title>Programmer_ready</title>
<ellipse fill="none" stroke="black" cx="561.79" cy="-361" rx="100.98" ry="18"/>
<text text-anchor="middle" x="561.79" y="-357.3" font-family="Times,serif" font-size="14.00">Programmer_ready</text>
<text text-anchor="middle" x="456.05" y="-382.8" font-family="Times,serif" font-size="14.00">1</text>
</g>
<!-- Programmer_start -->
<g id="node5" class="node">
<title>Programmer_start</title>
<polygon fill="none" stroke="black" points="636.29,-306 487.29,-306 487.29,-270 636.29,-270 636.29,-306"/>
<text text-anchor="middle" x="561.79" y="-284.3" font-family="Times,serif" font-size="14.00">Programmer_start</text>
</g>
<!-- Programmer_ready&#45;&gt;Programmer_start -->
<g id="edge1" class="edge">
<title>Programmer_ready&#45;&gt;Programmer_start</title>
<path fill="none" stroke="black" d="M561.79,-342.81C561.79,-334.79 561.79,-325.05 561.79,-316.07"/>
<polygon fill="black" stroke="black" points="561.79,-306.03 566.29,-316.03 561.79,-311.03 561.79,-316.03 561.79,-316.03 561.79,-316.03 561.79,-311.03 557.29,-316.03 561.79,-306.03 561.79,-306.03"/>
</g>
<!-- Programmer_started -->
<g id="node2" class="node">
<title>Programmer_started</title>
<ellipse fill="none" stroke="black" cx="561.79" cy="-215" rx="107.78" ry="18"/>
<text text-anchor="middle" x="561.79" y="-211.3" font-family="Times,serif" font-size="14.00">Programmer_started</text>
</g>
<!-- Programmer_running -->
<g id="node3" class="node">
<title>Programmer_running</title>
<ellipse fill="none" stroke="black" cx="325.79" cy="-215" rx="110.48" ry="18"/>
<text text-anchor="middle" x="325.79" y="-211.3" font-family="Times,serif" font-size="14.00">Programmer_running</text>
</g>
<!-- Programmer_finish -->
<g id="node6" class="node">
<title>Programmer_finish</title>
<polygon fill="none" stroke="black" points="402.79,-146 248.79,-146 248.79,-110 402.79,-110 402.79,-146"/>
<text text-anchor="middle" x="325.79" y="-124.3" font-family="Times,serif" font-size="14.00">Programmer_finish</text>
</g>
<!-- Programmer_running&#45;&gt;Programmer_finish -->
<g id="edge4" class="edge">
<title>Programmer_running&#45;&gt;Programmer_finish</title>
<path fill="none" stroke="black" d="M325.79,-196.8C325.79,-185.16 325.79,-169.55 325.79,-156.24"/>
<polygon fill="black" stroke="black" points="325.79,-146.18 330.29,-156.18 325.79,-151.18 325.79,-156.18 325.79,-156.18 325.79,-156.18 325.79,-151.18 321.29,-156.18 325.79,-146.18 325.79,-146.18"/>
</g>
<!-- Programmer_finished -->
<g id="node4" class="node">
<title>Programmer_finished</title>
<ellipse fill="none" stroke="black" cx="325.79" cy="-41" rx="111.28" ry="18"/>
<text text-anchor="middle" x="325.79" y="-37.3" font-family="Times,serif" font-size="14.00">Programmer_finished</text>
</g>
<!-- Programmer_start&#45;&gt;Programmer_started -->
<g id="edge3" class="edge">
<title>Programmer_start&#45;&gt;Programmer_started</title>
<path fill="none" stroke="black" d="M561.79,-269.81C561.79,-261.79 561.79,-252.05 561.79,-243.07"/>
<polygon fill="black" stroke="black" points="561.79,-233.03 566.29,-243.03 561.79,-238.03 561.79,-243.03 561.79,-243.03 561.79,-243.03 561.79,-238.03 557.29,-243.03 561.79,-233.03 561.79,-233.03"/>
</g>
<!-- Programmer_start&#45;&gt;Programmer_running -->
<g id="edge2" class="edge">
<title>Programmer_start&#45;&gt;Programmer_running</title>
<path fill="none" stroke="black" d="M505.26,-269.99C469.09,-259.11 422.22,-245.01 385.44,-233.95"/>
<polygon fill="black" stroke="black" points="375.84,-231.06 386.72,-229.63 380.63,-232.5 385.42,-233.94 385.42,-233.94 385.42,-233.94 380.63,-232.5 384.12,-238.25 375.84,-231.06 375.84,-231.06"/>
</g>
<!-- Programmer_finish&#45;&gt;Programmer_finished -->
<g id="edge5" class="edge">
<title>Programmer_finish&#45;&gt;Programmer_finished</title>
<path fill="none" stroke="black" d="M325.79,-109.8C325.79,-98.16 325.79,-82.55 325.79,-69.24"/>
<polygon fill="black" stroke="black" points="325.79,-59.18 330.29,-69.18 325.79,-64.18 325.79,-69.18 325.79,-69.18 325.79,-69.18 325.79,-64.18 321.29,-69.18 325.79,-59.18 325.79,-59.18"/>
</g>
<!-- Ordinateurs -->
<g id="node13" class="node">
<title>Ordinateurs</title>
<ellipse fill="none" stroke="black" cx="609.79" cy="-41" rx="66.89" ry="18"/>
<text text-anchor="middle" x="609.79" y="-37.3" font-family="Times,serif" font-size="14.00">Ordinateurs</text>
<text text-anchor="middle" x="537.85" y="-62.8" font-family="Times,serif" font-size="14.00">5</text>
</g>
<!-- Programmer_finish&#45;&gt;Ordinateurs -->
<g id="edge13" class="edge">
<title>Programmer_finish&#45;&gt;Ordinateurs</title>
<path fill="none" stroke="black" d="M382.92,-109.9C433.69,-94.71 507.31,-72.67 556.79,-57.86"/>
<polygon fill="black" stroke="black" points="566.65,-54.91 558.36,-62.09 561.86,-56.34 557.07,-57.78 557.07,-57.78 557.07,-57.78 561.86,-56.34 555.78,-53.47 566.65,-54.91 566.65,-54.91"/>
<text text-anchor="middle" x="489.79" y="-80.8" font-family="Times,serif" font-size="14.00">2</text>
</g>
<!-- Concevoir_ready -->
<g id="node7" class="node">
<title>Concevoir_ready</title>
<ellipse fill="none" stroke="black" cx="203.79" cy="-507" rx="87.99" ry="18"/>
<text text-anchor="middle" x="203.79" y="-503.3" font-family="Times,serif" font-size="14.00">Concevoir_ready</text>
<text text-anchor="middle" x="111.05" y="-528.8" font-family="Times,serif" font-size="14.00">1</text>
</g>
<!-- Concevoir_start -->
<g id="node11" class="node">
<title>Concevoir_start</title>
<polygon fill="none" stroke="black" points="268.29,-452 139.29,-452 139.29,-416 268.29,-416 268.29,-452"/>
<text text-anchor="middle" x="203.79" y="-430.3" font-family="Times,serif" font-size="14.00">Concevoir_start</text>
</g>
<!-- Concevoir_ready&#45;&gt;Concevoir_start -->
<g id="edge6" class="edge">
<title>Concevoir_ready&#45;&gt;Concevoir_start</title>
<path fill="none" stroke="black" d="M203.79,-488.81C203.79,-480.79 203.79,-471.05 203.79,-462.07"/>
<polygon fill="black" stroke="black" points="203.79,-452.03 208.29,-462.03 203.79,-457.03 203.79,-462.03 203.79,-462.03 203.79,-462.03 203.79,-457.03 199.29,-462.03 203.79,-452.03 203.79,-452.03"/>
</g>
<!-- Concevoir_started -->
<g id="node8" class="node">
<title>Concevoir_started</title>
<ellipse fill="none" stroke="black" cx="309.79" cy="-361" rx="94.78" ry="18"/>
<text text-anchor="middle" x="309.79" y="-357.3" font-family="Times,serif" font-size="14.00">Concevoir_started</text>
</g>
<!-- Concevoir_running -->
<g id="node9" class="node">
<title>Concevoir_running</title>
<ellipse fill="none" stroke="black" cx="98.79" cy="-361" rx="98.28" ry="18"/>
<text text-anchor="middle" x="98.79" y="-357.3" font-family="Times,serif" font-size="14.00">Concevoir_running</text>
</g>
<!-- Concevoir_finish -->
<g id="node12" class="node">
<title>Concevoir_finish</title>
<polygon fill="none" stroke="black" points="165.79,-306 31.79,-306 31.79,-270 165.79,-270 165.79,-306"/>
<text text-anchor="middle" x="98.79" y="-284.3" font-family="Times,serif" font-size="14.00">Concevoir_finish</text>
</g>
<!-- Concevoir_running&#45;&gt;Concevoir_finish -->
<g id="edge9" class="edge">
<title>Concevoir_running&#45;&gt;Concevoir_finish</title>
<path fill="none" stroke="black" d="M98.79,-342.81C98.79,-334.79 98.79,-325.05 98.79,-316.07"/>
<polygon fill="black" stroke="black" points="98.79,-306.03 103.29,-316.03 98.79,-311.03 98.79,-316.03 98.79,-316.03 98.79,-316.03 98.79,-311.03 94.29,-316.03 98.79,-306.03 98.79,-306.03"/>
</g>
<!-- Concevoir_finished -->
<g id="node10" class="node">
<title>Concevoir_finished</title>
<ellipse fill="none" stroke="black" cx="98.79" cy="-215" rx="98.58" ry="18"/>
<text text-anchor="middle" x="98.79" y="-211.3" font-family="Times,serif" font-size="14.00">Concevoir_finished</text>
</g>
<!-- Concevoir_finished&#45;&gt;Programmer_finish -->
<g id="edge11" class="edge">
<title>Concevoir_finished&#45;&gt;Programmer_finish</title>
<path fill="none" stroke="black" d="M147.55,-195.74C186.91,-181.01 241.86,-160.43 280.31,-146.03"/>
<ellipse fill="black" stroke="black" cx="143.65" cy="-197.2" rx="4" ry="4"/>
</g>
<!-- Concevoir_start&#45;&gt;Concevoir_started -->
<g id="edge8" class="edge">
<title>Concevoir_start&#45;&gt;Concevoir_started</title>
<path fill="none" stroke="black" d="M229.18,-415.99C243.31,-406.53 261.08,-394.63 276.33,-384.41"/>
<polygon fill="black" stroke="black" points="284.97,-378.62 279.17,-387.93 280.82,-381.41 276.67,-384.19 276.67,-384.19 276.67,-384.19 280.82,-381.41 274.16,-380.45 284.97,-378.62 284.97,-378.62"/>
</g>
<!-- Concevoir_start&#45;&gt;Concevoir_running -->
<g id="edge7" class="edge">
<title>Concevoir_start&#45;&gt;Concevoir_running</title>
<path fill="none" stroke="black" d="M178.64,-415.99C164.64,-406.53 147.05,-394.63 131.94,-384.41"/>
<polygon fill="black" stroke="black" points="123.37,-378.62 134.18,-380.5 127.52,-381.42 131.66,-384.22 131.66,-384.22 131.66,-384.22 127.52,-381.42 129.14,-387.95 123.37,-378.62 123.37,-378.62"/>
</g>
<!-- Concevoir_finish&#45;&gt;Concevoir_finished -->
<g id="edge10" class="edge">
<title>Concevoir_finish&#45;&gt;Concevoir_finished</title>
<path fill="none" stroke="black" d="M98.79,-269.81C98.79,-261.79 98.79,-252.05 98.79,-243.07"/>
<polygon fill="black" stroke="black" points="98.79,-233.03 103.29,-243.03 98.79,-238.03 98.79,-243.03 98.79,-243.03 98.79,-243.03 98.79,-238.03 94.29,-243.03 98.79,-233.03 98.79,-233.03"/>
</g>
<!-- Ordinateurs&#45;&gt;Programmer_start -->
<g id="edge12" class="edge">
<title>Ordinateurs&#45;&gt;Programmer_start</title>
<path fill="none" stroke="black" d="M625.29,-58.7C655.49,-93.34 716.13,-174.64 678.79,-233 669.62,-247.33 655.57,-257.92 640.35,-265.71"/>
<polygon fill="black" stroke="black" points="631.28,-269.99 638.4,-261.66 635.8,-267.86 640.32,-265.73 640.32,-265.73 640.32,-265.73 635.8,-267.86 642.24,-269.8 631.28,-269.99 631.28,-269.99"/>
<text text-anchor="middle" x="693.79" y="-167.8" font-family="Times,serif" font-size="14.00">2</text>
</g>
</g>
</svg>
