<?xml version="1.0" encoding="UTF-8" standalone="no"?>
<!DOCTYPE svg PUBLIC "-//W3C//DTD SVG 1.1//EN"
 "http://www.w3.org/Graphics/SVG/1.1/DTD/svg11.dtd">
<!-- Generated by graphviz version 2.43.0 (0)
 -->
<!-- Title: exemplePlaceRessource Pages: 1 -->
<svg width="706pt" height="604pt"
 viewBox="0.00 0.00 705.79 604.00" xmlns="http://www.w3.org/2000/svg" xmlns:xlink="http://www.w3.org/1999/xlink">
<g id="graph0" class="graph" transform="scale(1 1) rotate(0) translate(4 600)">
<title>exemplePlaceRessource</title>
<polygon fill="white" stroke="transparent" points="-4,4 -4,-600 701.79,-600 701.79,4 -4,4"/>
<text text-anchor="middle" x="348.9" y="-7.8" font-family="Times,serif" font-size="14.00">exemplePlaceRessource</text>
<!-- Programmer_ready -->
<g id="node1" class="node">
<title>Programmer_ready</title>
<ellipse fill="none" stroke="black" cx="561.79" cy="-389" rx="100.98" ry="18"/>
<text text-anchor="middle" x="561.79" y="-385.3" font-family="Times,serif" font-size="14.00">Programmer_ready</text>
<text text-anchor="middle" x="456.05" y="-410.8" font-family="Times,serif" font-size="14.00">1</text>
</g>
<!-- Programmer_start -->
<g id="node5" class="node">
<title>Programmer_start</title>
<polygon fill="none" stroke="black" points="636.29,-320 487.29,-320 487.29,-284 636.29,-284 636.29,-320"/>
<text text-anchor="middle" x="561.79" y="-298.3" font-family="Times,serif" font-size="14.00">Programmer_start</text>
</g>
<!-- Programmer_ready&#45;&gt;Programmer_start -->
<g id="edge1" class="edge">
<title>Programmer_ready&#45;&gt;Programmer_start</title>
<path fill="none" stroke="black" d="M561.79,-370.8C561.79,-359.16 561.79,-343.55 561.79,-330.24"/>
<polygon fill="black" stroke="black" points="561.79,-320.18 566.29,-330.18 561.79,-325.18 561.79,-330.18 561.79,-330.18 561.79,-330.18 561.79,-325.18 557.29,-330.18 561.79,-320.18 561.79,-320.18"/>
<text text-anchor="middle" x="566.79" y="-341.8" font-family="Times,serif" font-size="14.00">1</text>
</g>
<!-- Programmer_started -->
<g id="node2" class="node">
<title>Programmer_started</title>
<ellipse fill="none" stroke="black" cx="561.79" cy="-215" rx="107.78" ry="18"/>
<text text-anchor="middle" x="561.79" y="-211.3" font-family="Times,serif" font-size="14.00">Programmer_started</text>
</g>
<!-- Programmer_running -->
<g id="node3" class="node">
<title>Programmer_running</title>
<ellipse fill="none" stroke="black" cx="325.79" cy="-215" rx="110.48" ry="18"/>
<text text-anchor="middle" x="325.79" y="-211.3" font-family="Times,serif" font-size="14.00">Programmer_running</text>
</g>
<!-- Programmer_finish -->
<g id="node6" class="node">
<title>Programmer_finish</title>
<polygon fill="none" stroke="black" points="402.79,-146 248.79,-146 248.79,-110 402.79,-110 402.79,-146"/>
<text text-anchor="middle" x="325.79" y="-124.3" font-family="Times,serif" font-size="14.00">Programmer_finish</text>
</g>
<!-- Programmer_running&#45;&gt;Programmer_finish -->
<g id="edge4" class="edge">
<title>Programmer_running&#45;&gt;Programmer_finish</title>
<path fill="none" stroke="black" d="M325.79,-196.8C325.79,-185.16 325.79,-169.55 325.79,-156.24"/>
<polygon fill="black" stroke="black" points="325.79,-146.18 330.29,-156.18 325.79,-151.18 325.79,-156.18 325.79,-156.18 325.79,-156.18 325.79,-151.18 321.29,-156.18 325.79,-146.18 325.79,-146.18"/>
<text text-anchor="middle" x="330.79" y="-167.8" font-family="Times,serif" font-size="14.00">1</text>
</g>
<!-- Programmer_finished -->
<g id="node4" class="node">
<title>Programmer_finished</title>
<ellipse fill="none" stroke="black" cx="325.79" cy="-41" rx="111.28" ry="18"/>
<text text-anchor="middle" x="325.79" y="-37.3" font-family="Times,serif" font-size="14.00">Programmer_finished</text>
</g>
<!-- Programmer_start&#45;&gt;Programmer_started -->
<g id="edge3" class="edge">
<title>Programmer_start&#45;&gt;Programmer_started</title>
<path fill="none" stroke="black" d="M561.79,-283.8C561.79,-272.16 561.79,-256.55 561.79,-243.24"/>
<polygon fill="black" stroke="black" points="561.79,-233.18 566.29,-243.18 561.79,-238.18 561.79,-243.18 561.79,-243.18 561.79,-243.18 561.79,-238.18 557.29,-243.18 561.79,-233.18 561.79,-233.18"/>
<text text-anchor="middle" x="566.79" y="-254.8" font-family="Times,serif" font-size="14.00">1</text>
</g>
<!-- Programmer_start&#45;&gt;Programmer_running -->
<g id="edge2" class="edge">
<title>Programmer_start&#45;&gt;Programmer_running</title>
<path fill="none" stroke="black" d="M514.32,-283.9C475.06,-269.76 419.37,-249.7 378.69,-235.05"/>
<polygon fill="black" stroke="black" points="369.21,-231.64 380.15,-230.79 373.92,-233.33 378.62,-235.03 378.62,-235.03 378.62,-235.03 373.92,-233.33 377.1,-239.26 369.21,-231.64 369.21,-231.64"/>
<text text-anchor="middle" x="462.79" y="-254.8" font-family="Times,serif" font-size="14.00">1</text>
</g>
<!-- Programmer_finish&#45;&gt;Programmer_finished -->
<g id="edge5" class="edge">
<title>Programmer_finish&#45;&gt;Programmer_finished</title>
<path fill="none" stroke="black" d="M325.79,-109.8C325.79,-98.16 325.79,-82.55 325.79,-69.24"/>
<polygon fill="black" stroke="black" points="325.79,-59.18 330.29,-69.18 325.79,-64.18 325.79,-69.18 325.79,-69.18 325.79,-69.18 325.79,-64.18 321.29,-69.18 325.79,-59.18 325.79,-59.18"/>
<text text-anchor="middle" x="330.79" y="-80.8" font-family="Times,serif" font-size="14.00">1</text>
</g>
<!-- Ordinateurs -->
<g id="node13" class="node">
<title>Ordinateurs</title>
<ellipse fill="none" stroke="black" cx="609.79" cy="-41" rx="66.89" ry="18"/>
<text text-anchor="middle" x="609.79" y="-37.3" font-family="Times,serif" font-size="14.00">Ordinateurs</text>
<text text-anchor="middle" x="537.85" y="-62.8" font-family="Times,serif" font-size="14.00">5</text>
</g>
<!-- Programmer_finish&#45;&gt;Ordinateurs -->
<g id="edge13" class="edge">
<title>Programmer_finish&#45;&gt;Ordinateurs</title>
<path fill="none" stroke="black" d="M382.92,-109.9C433.69,-94.71 507.31,-72.67 556.79,-57.86"/>
<polygon fill="black" stroke="black" points="566.65,-54.91 558.36,-62.09 561.86,-56.34 557.07,-57.78 557.07,-57.78 557.07,-57.78 561.86,-56.34 555.78,-53.47 566.65,-54.91 566.65,-54.91"/>
<text text-anchor="middle" x="489.79" y="-80.8" font-family="Times,serif" font-size="14.00">2</text>
</g>
<!-- Concevoir_ready -->
<g id="node7" class="node">
<title>Concevoir_ready</title>
<ellipse fill="none" stroke="black" cx="203.79" cy="-563" rx="87.99" ry="18"/>
<text text-anchor="middle" x="203.79" y="-559.3" font-family="Times,serif" font-size="14.00">Concevoir_ready</text>
<text text-anchor="middle" x="111.05" y="-584.8" font-family="Times,serif" font-size="14.00">1</text>
</g>
<!-- Concevoir_start -->
<g id="node11" class="node">
<title>Concevoir_start</title>
<polygon fill="none" stroke="black" points="268.29,-494 139.29,-494 139.29,-458 268.29,-458 268.29,-494"/>
<text text-anchor="middle" x="203.79" y="-472.3" font-family="Times,serif" font-size="14.00">Concevoir_start</text>
</g>
<!-- Concevoir_ready&#45;&gt;Concevoir_start -->
<g id="edge6" class="edge">
<title>Concevoir_ready&#45;&gt;Concevoir_start</title>
<path fill="none" stroke="black" d="M203.79,-544.8C203.79,-533.16 203.79,-517.55 203.79,-504.24"/>
<polygon fill="black" stroke="black" points="203.79,-494.18 208.29,-504.18 203.79,-499.18 203.79,-504.18 203.79,-504.18 203.79,-504.18 203.79,-499.18 199.29,-504.18 203.79,-494.18 203.79,-494.18"/>
<text text-anchor="middle" x="208.79" y="-515.8" font-family="Times,serif" font-size="14.00">1</text>
</g>
<!-- Concevoir_started -->
<g id="node8" class="node">
<title>Concevoir_started</title>
<ellipse fill="none" stroke="black" cx="309.79" cy="-389" rx="94.78" ry="18"/>
<text text-anchor="middle" x="309.79" y="-385.3" font-family="Times,serif" font-size="14.00">Concevoir_started</text>
</g>
<!-- Concevoir_running -->
<g id="node9" class="node">
<title>Concevoir_running</title>
<ellipse fill="none" stroke="black" cx="98.79" cy="-389" rx="98.28" ry="18"/>
<text text-anchor="middle" x="98.79" y="-385.3" font-family="Times,serif" font-size="14.00">Concevoir_running</text>
</g>
<!-- Concevoir_finish -->
<g id="node12" class="node">
<title>Concevoir_finish</title>
<polygon fill="none" stroke="black" points="165.79,-320 31.79,-320 31.79,-284 165.79,-284 165.79,-320"/>
<text text-anchor="middle" x="98.79" y="-298.3" font-family="Times,serif" font-size="14.00">Concevoir_finish</text>
</g>
<!-- Concevoir_running&#45;&gt;Concevoir_finish -->
<g id="edge9" class="edge">
<title>Concevoir_running&#45;&gt;Concevoir_finish</title>
<path fill="none" stroke="black" d="M98.79,-370.8C98.79,-359.16 98.79,-343.55 98.79,-330.24"/>
<polygon fill="black" stroke="black" points="98.79,-320.18 103.29,-330.18 98.79,-325.18 98.79,-330.18 98.79,-330.18 98.79,-330.18 98.79,-325.18 94.29,-330.18 98.79,-320.18 98.79,-320.18"/>
<text text-anchor="middle" x="103.79" y="-341.8" font-family="Times,serif" font-size="14.00">1</text>
</g>
<!-- Concevoir_finished -->
<g id="node10" class="node">
<title>Concevoir_finished</title>
<ellipse fill="none" stroke="black" cx="98.79" cy="-215" rx="98.58" ry="18"/>
<text text-anchor="middle" x="98.79" y="-211.3" font-family="Times,serif" font-size="14.00">Concevoir_finished</text>
</g>
<!-- Concevoir_finished&#45;&gt;Programmer_finish -->
<g id="edge11" class="edge">
<title>Concevoir_finished&#45;&gt;Programmer_finish</title>
<path fill="none" stroke="black" d="M147.55,-195.74C186.91,-181.01 241.86,-160.43 280.31,-146.03"/>
<ellipse fill="black" stroke="black" cx="143.65" cy="-197.2" rx="4" ry="4"/>
<text text-anchor="middle" x="231.79" y="-167.8" font-family="Times,serif" font-size="14.00">1</text>
</g>
<!-- Concevoir_start&#45;&gt;Concevoir_started -->
<g id="edge8" class="edge">
<title>Concevoir_start&#45;&gt;Concevoir_started</title>
<path fill="none" stroke="black" d="M225.24,-457.8C241.25,-444.96 263.31,-427.27 280.88,-413.19"/>
<polygon fill="black" stroke="black" points="289.09,-406.6 284.11,-416.36 285.19,-409.72 281.29,-412.85 281.29,-412.85 281.29,-412.85 285.19,-409.72 278.48,-409.34 289.09,-406.6 289.09,-406.6"/>
<text text-anchor="middle" x="267.79" y="-428.8" font-family="Times,serif" font-size="14.00">1</text>
</g>
<!-- Concevoir_start&#45;&gt;Concevoir_running -->
<g id="edge7" class="edge">
<title>Concevoir_start&#45;&gt;Concevoir_running</title>
<path fill="none" stroke="black" d="M182.54,-457.8C166.78,-445.04 145.12,-427.5 127.77,-413.46"/>
<polygon fill="black" stroke="black" points="119.65,-406.89 130.25,-409.68 123.54,-410.03 127.42,-413.18 127.42,-413.18 127.42,-413.18 123.54,-410.03 124.59,-416.67 119.65,-406.89 119.65,-406.89"/>
<text text-anchor="middle" x="162.79" y="-428.8" font-family="Times,serif" font-size="14.00">1</text>
</g>
<!-- Concevoir_finish&#45;&gt;Concevoir_finished -->
<g id="edge10" class="edge">
<title>Concevoir_finish&#45;&gt;Concevoir_finished</title>
<path fill="none" stroke="black" d="M98.79,-283.8C98.79,-272.16 98.79,-256.55 98.79,-243.24"/>
<polygon fill="black" stroke="black" points="98.79,-233.18 103.29,-243.18 98.79,-238.18 98.79,-243.18 98.79,-243.18 98.79,-243.18 98.79,-238.18 94.29,-243.18 98.79,-233.18 98.79,-233.18"/>
<text text-anchor="middle" x="103.79" y="-254.8" font-family="Times,serif" font-size="14.00">1</text>
</g>
<!-- Ordinateurs&#45;&gt;Programmer_start -->
<g id="edge12" class="edge">
<title>Ordinateurs&#45;&gt;Programmer_start</title>
<path fill="none" stroke="black" d="M625.07,-58.69C654.5,-92.96 713.26,-173.1 678.79,-233 666.75,-253.93 645.51,-269.02 624.41,-279.58"/>
<polygon fill="black" stroke="black" points="615.08,-283.97 622.21,-275.64 619.6,-281.84 624.13,-279.71 624.13,-279.71 624.13,-279.71 619.6,-281.84 626.04,-283.78 615.08,-283.97 615.08,-283.97"/>
<text text-anchor="middle" x="692.79" y="-167.8" font-family="Times,serif" font-size="14.00">2</text>
</g>
</g>
</svg>
