<?xml version="1.0" encoding="UTF-8" standalone="no"?>
<!DOCTYPE svg PUBLIC "-//W3C//DTD SVG 1.1//EN"
 "http://www.w3.org/Graphics/SVG/1.1/DTD/svg11.dtd">
<!-- Generated by graphviz version 2.43.0 (0)
 -->
<!-- Title: exemplePlaceRessource Pages: 1 -->
<svg width="990pt" height="548pt"
 viewBox="0.00 0.00 989.84 548.00" xmlns="http://www.w3.org/2000/svg" xmlns:xlink="http://www.w3.org/1999/xlink">
<g id="graph0" class="graph" transform="scale(1 1) rotate(0) translate(4 544)">
<title>exemplePlaceRessource</title>
<polygon fill="white" stroke="transparent" points="-4,4 -4,-544 985.84,-544 985.84,4 -4,4"/>
<text text-anchor="middle" x="490.92" y="-7.8" font-family="Times,serif" font-size="14.00">exemplePlaceRessource</text>
<!-- Ordinateurs -->
<g id="node1" class="node">
<title>Ordinateurs</title>
<ellipse fill="none" stroke="black" cx="76.94" cy="-361" rx="66.89" ry="18"/>
<text text-anchor="middle" x="76.94" y="-357.3" font-family="Times,serif" font-size="14.00">Ordinateurs</text>
<text text-anchor="middle" x="5" y="-382.8" font-family="Times,serif" font-size="14.00">5</text>
</g>
<!-- Programmer_start -->
<g id="node6" class="node">
<title>Programmer_start</title>
<polygon fill="none" stroke="black" points="312.44,-292 163.44,-292 163.44,-256 312.44,-256 312.44,-292"/>
<text text-anchor="middle" x="237.94" y="-270.3" font-family="Times,serif" font-size="14.00">Programmer_start</text>
</g>
<!-- Ordinateurs&#45;&gt;Programmer_start -->
<g id="edge1" class="edge">
<title>Ordinateurs&#45;&gt;Programmer_start</title>
<path fill="none" stroke="black" d="M106.1,-344.61C131.45,-331.22 168.45,-311.69 196.81,-296.72"/>
<polygon fill="black" stroke="black" points="205.69,-292.03 198.95,-300.68 201.27,-294.36 196.85,-296.7 196.85,-296.7 196.85,-296.7 201.27,-294.36 194.74,-292.72 205.69,-292.03 205.69,-292.03"/>
<text text-anchor="middle" x="172.94" y="-313.8" font-family="Times,serif" font-size="14.00">2</text>
</g>
<!-- Programmer_ready -->
<g id="node2" class="node">
<title>Programmer_ready</title>
<ellipse fill="none" stroke="black" cx="262.94" cy="-361" rx="100.98" ry="18"/>
<text text-anchor="middle" x="262.94" y="-357.3" font-family="Times,serif" font-size="14.00">Programmer_ready</text>
<text text-anchor="middle" x="157.2" y="-382.8" font-family="Times,serif" font-size="14.00">1</text>
</g>
<!-- Programmer_ready&#45;&gt;Programmer_start -->
<g id="edge3" class="edge">
<title>Programmer_ready&#45;&gt;Programmer_start</title>
<path fill="none" stroke="black" d="M257.88,-342.8C254.43,-331.05 249.78,-315.24 245.84,-301.84"/>
<polygon fill="black" stroke="black" points="243,-292.18 250.13,-300.5 244.41,-296.97 245.82,-301.77 245.82,-301.77 245.82,-301.77 244.41,-296.97 241.5,-303.04 243,-292.18 243,-292.18"/>
</g>
<!-- Programmer_started -->
<g id="node3" class="node">
<title>Programmer_started</title>
<ellipse fill="none" stroke="black" cx="212.94" cy="-187" rx="107.78" ry="18"/>
<text text-anchor="middle" x="212.94" y="-183.3" font-family="Times,serif" font-size="14.00">Programmer_started</text>
</g>
<!-- Programmer_running -->
<g id="node4" class="node">
<title>Programmer_running</title>
<ellipse fill="none" stroke="black" cx="448.94" cy="-187" rx="110.48" ry="18"/>
<text text-anchor="middle" x="448.94" y="-183.3" font-family="Times,serif" font-size="14.00">Programmer_running</text>
</g>
<!-- Programmer_finish -->
<g id="node7" class="node">
<title>Programmer_finish</title>
<polygon fill="none" stroke="black" points="525.94,-132 371.94,-132 371.94,-96 525.94,-96 525.94,-132"/>
<text text-anchor="middle" x="448.94" y="-110.3" font-family="Times,serif" font-size="14.00">Programmer_finish</text>
</g>
<!-- Programmer_running&#45;&gt;Programmer_finish -->
<g id="edge6" class="edge">
<title>Programmer_running&#45;&gt;Programmer_finish</title>
<path fill="none" stroke="black" d="M448.94,-168.81C448.94,-160.79 448.94,-151.05 448.94,-142.07"/>
<polygon fill="black" stroke="black" points="448.94,-132.03 453.44,-142.03 448.94,-137.03 448.94,-142.03 448.94,-142.03 448.94,-142.03 448.94,-137.03 444.44,-142.03 448.94,-132.03 448.94,-132.03"/>
</g>
<!-- Programmer_finished -->
<g id="node5" class="node">
<title>Programmer_finished</title>
<ellipse fill="none" stroke="black" cx="448.94" cy="-41" rx="111.28" ry="18"/>
<text text-anchor="middle" x="448.94" y="-37.3" font-family="Times,serif" font-size="14.00">Programmer_finished</text>
</g>
<!-- Programmer_start&#45;&gt;Programmer_started -->
<g id="edge5" class="edge">
<title>Programmer_start&#45;&gt;Programmer_started</title>
<path fill="none" stroke="black" d="M232.88,-255.8C229.43,-244.05 224.78,-228.24 220.84,-214.84"/>
<polygon fill="black" stroke="black" points="218,-205.18 225.13,-213.5 219.41,-209.97 220.82,-214.77 220.82,-214.77 220.82,-214.77 219.41,-209.97 216.5,-216.04 218,-205.18 218,-205.18"/>
</g>
<!-- Programmer_start&#45;&gt;Programmer_running -->
<g id="edge4" class="edge">
<title>Programmer_start&#45;&gt;Programmer_running</title>
<path fill="none" stroke="black" d="M280.39,-255.9C314.97,-241.97 363.82,-222.29 400.03,-207.7"/>
<polygon fill="black" stroke="black" points="409.42,-203.92 401.83,-211.83 404.78,-205.79 400.14,-207.66 400.14,-207.66 400.14,-207.66 404.78,-205.79 398.46,-203.48 409.42,-203.92 409.42,-203.92"/>
</g>
<!-- Programmer_finish&#45;&gt;Ordinateurs -->
<g id="edge2" class="edge">
<title>Programmer_finish&#45;&gt;Ordinateurs</title>
<path fill="none" stroke="black" d="M371.72,-116.13C279.38,-119.24 132.64,-130.32 95.94,-169 53.96,-213.26 62.3,-291.89 70.47,-333.1"/>
<polygon fill="black" stroke="black" points="72.56,-342.96 66.08,-334.12 71.52,-338.07 70.49,-333.18 70.49,-333.18 70.49,-333.18 71.52,-338.07 74.89,-332.25 72.56,-342.96 72.56,-342.96"/>
<text text-anchor="middle" x="73.94" y="-226.8" font-family="Times,serif" font-size="14.00">2</text>
</g>
<!-- Programmer_finish&#45;&gt;Programmer_finished -->
<g id="edge7" class="edge">
<title>Programmer_finish&#45;&gt;Programmer_finished</title>
<path fill="none" stroke="black" d="M448.94,-95.81C448.94,-87.79 448.94,-78.05 448.94,-69.07"/>
<polygon fill="black" stroke="black" points="448.94,-59.03 453.44,-69.03 448.94,-64.03 448.94,-69.03 448.94,-69.03 448.94,-69.03 448.94,-64.03 444.44,-69.03 448.94,-59.03 448.94,-59.03"/>
</g>
<!-- Concevoir_ready -->
<g id="node8" class="node">
<title>Concevoir_ready</title>
<ellipse fill="none" stroke="black" cx="780.94" cy="-507" rx="87.99" ry="18"/>
<text text-anchor="middle" x="780.94" y="-503.3" font-family="Times,serif" font-size="14.00">Concevoir_ready</text>
<text text-anchor="middle" x="688.2" y="-528.8" font-family="Times,serif" font-size="14.00">1</text>
</g>
<!-- Concevoir_start -->
<g id="node12" class="node">
<title>Concevoir_start</title>
<polygon fill="none" stroke="black" points="845.44,-452 716.44,-452 716.44,-416 845.44,-416 845.44,-452"/>
<text text-anchor="middle" x="780.94" y="-430.3" font-family="Times,serif" font-size="14.00">Concevoir_start</text>
</g>
<!-- Concevoir_ready&#45;&gt;Concevoir_start -->
<g id="edge8" class="edge">
<title>Concevoir_ready&#45;&gt;Concevoir_start</title>
<path fill="none" stroke="black" d="M780.94,-488.81C780.94,-480.79 780.94,-471.05 780.94,-462.07"/>
<polygon fill="black" stroke="black" points="780.94,-452.03 785.44,-462.03 780.94,-457.03 780.94,-462.03 780.94,-462.03 780.94,-462.03 780.94,-457.03 776.44,-462.03 780.94,-452.03 780.94,-452.03"/>
</g>
<!-- Concevoir_started -->
<g id="node9" class="node">
<title>Concevoir_started</title>
<ellipse fill="none" stroke="black" cx="886.94" cy="-361" rx="94.78" ry="18"/>
<text text-anchor="middle" x="886.94" y="-357.3" font-family="Times,serif" font-size="14.00">Concevoir_started</text>
</g>
<!-- Concevoir_running -->
<g id="node10" class="node">
<title>Concevoir_running</title>
<ellipse fill="none" stroke="black" cx="675.94" cy="-361" rx="98.28" ry="18"/>
<text text-anchor="middle" x="675.94" y="-357.3" font-family="Times,serif" font-size="14.00">Concevoir_running</text>
</g>
<!-- Concevoir_finish -->
<g id="node13" class="node">
<title>Concevoir_finish</title>
<polygon fill="none" stroke="black" points="742.94,-292 608.94,-292 608.94,-256 742.94,-256 742.94,-292"/>
<text text-anchor="middle" x="675.94" y="-270.3" font-family="Times,serif" font-size="14.00">Concevoir_finish</text>
</g>
<!-- Concevoir_running&#45;&gt;Concevoir_finish -->
<g id="edge11" class="edge">
<title>Concevoir_running&#45;&gt;Concevoir_finish</title>
<path fill="none" stroke="black" d="M675.94,-342.8C675.94,-331.16 675.94,-315.55 675.94,-302.24"/>
<polygon fill="black" stroke="black" points="675.94,-292.18 680.44,-302.18 675.94,-297.18 675.94,-302.18 675.94,-302.18 675.94,-302.18 675.94,-297.18 671.44,-302.18 675.94,-292.18 675.94,-292.18"/>
</g>
<!-- Concevoir_finished -->
<g id="node11" class="node">
<title>Concevoir_finished</title>
<ellipse fill="none" stroke="black" cx="675.94" cy="-187" rx="98.58" ry="18"/>
<text text-anchor="middle" x="675.94" y="-183.3" font-family="Times,serif" font-size="14.00">Concevoir_finished</text>
</g>
<!-- Concevoir_finished&#45;&gt;Programmer_finish -->
<g id="edge13" class="edge">
<title>Concevoir_finished&#45;&gt;Programmer_finish</title>
<path fill="none" stroke="black" d="M628.36,-171.12C594.37,-160.49 548.32,-146.08 511.39,-134.53"/>
<ellipse fill="black" stroke="black" cx="507.47" cy="-133.3" rx="4" ry="4"/>
</g>
<!-- Concevoir_start&#45;&gt;Concevoir_started -->
<g id="edge10" class="edge">
<title>Concevoir_start&#45;&gt;Concevoir_started</title>
<path fill="none" stroke="black" d="M806.33,-415.99C820.46,-406.53 838.23,-394.63 853.48,-384.41"/>
<polygon fill="black" stroke="black" points="862.13,-378.62 856.32,-387.93 857.97,-381.41 853.82,-384.19 853.82,-384.19 853.82,-384.19 857.97,-381.41 851.31,-380.45 862.13,-378.62 862.13,-378.62"/>
</g>
<!-- Concevoir_start&#45;&gt;Concevoir_running -->
<g id="edge9" class="edge">
<title>Concevoir_start&#45;&gt;Concevoir_running</title>
<path fill="none" stroke="black" d="M755.79,-415.99C741.8,-406.53 724.2,-394.63 709.09,-384.41"/>
<polygon fill="black" stroke="black" points="700.53,-378.62 711.33,-380.5 704.67,-381.42 708.81,-384.22 708.81,-384.22 708.81,-384.22 704.67,-381.42 706.29,-387.95 700.53,-378.62 700.53,-378.62"/>
</g>
<!-- Concevoir_finish&#45;&gt;Concevoir_finished -->
<g id="edge12" class="edge">
<title>Concevoir_finish&#45;&gt;Concevoir_finished</title>
<path fill="none" stroke="black" d="M675.94,-255.8C675.94,-244.16 675.94,-228.55 675.94,-215.24"/>
<polygon fill="black" stroke="black" points="675.94,-205.18 680.44,-215.18 675.94,-210.18 675.94,-215.18 675.94,-215.18 675.94,-215.18 675.94,-210.18 671.44,-215.18 675.94,-205.18 675.94,-205.18"/>
</g>
</g>
</svg>
