<?xml version="1.0" encoding="UTF-8" standalone="no"?>
<!DOCTYPE svg PUBLIC "-//W3C//DTD SVG 1.1//EN"
 "http://www.w3.org/Graphics/SVG/1.1/DTD/svg11.dtd">
<!-- Generated by graphviz version 2.43.0 (0)
 -->
<!-- Title: exemplePlaceRessource Pages: 1 -->
<svg width="990pt" height="604pt"
 viewBox="0.00 0.00 989.84 604.00" xmlns="http://www.w3.org/2000/svg" xmlns:xlink="http://www.w3.org/1999/xlink">
<g id="graph0" class="graph" transform="scale(1 1) rotate(0) translate(4 600)">
<title>exemplePlaceRessource</title>
<polygon fill="white" stroke="transparent" points="-4,4 -4,-600 985.84,-600 985.84,4 -4,4"/>
<text text-anchor="middle" x="490.92" y="-7.8" font-family="Times,serif" font-size="14.00">exemplePlaceRessource</text>
<!-- Ordinateurs -->
<g id="node1" class="node">
<title>Ordinateurs</title>
<ellipse fill="none" stroke="black" cx="76.94" cy="-389" rx="66.89" ry="18"/>
<text text-anchor="middle" x="76.94" y="-385.3" font-family="Times,serif" font-size="14.00">Ordinateurs</text>
<text text-anchor="middle" x="5" y="-410.8" font-family="Times,serif" font-size="14.00">5</text>
</g>
<!-- Programmer_start -->
<g id="node6" class="node">
<title>Programmer_start</title>
<polygon fill="none" stroke="black" points="312.44,-320 163.44,-320 163.44,-284 312.44,-284 312.44,-320"/>
<text text-anchor="middle" x="237.94" y="-298.3" font-family="Times,serif" font-size="14.00">Programmer_start</text>
</g>
<!-- Ordinateurs&#45;&gt;Programmer_start -->
<g id="edge1" class="edge">
<title>Ordinateurs&#45;&gt;Programmer_start</title>
<path fill="none" stroke="black" d="M106.1,-372.61C131.45,-359.22 168.45,-339.69 196.81,-324.72"/>
<polygon fill="black" stroke="black" points="205.69,-320.03 198.95,-328.68 201.27,-322.36 196.85,-324.7 196.85,-324.7 196.85,-324.7 201.27,-322.36 194.74,-320.72 205.69,-320.03 205.69,-320.03"/>
<text text-anchor="middle" x="172.94" y="-341.8" font-family="Times,serif" font-size="14.00">2</text>
</g>
<!-- Programmer_ready -->
<g id="node2" class="node">
<title>Programmer_ready</title>
<ellipse fill="none" stroke="black" cx="262.94" cy="-389" rx="100.98" ry="18"/>
<text text-anchor="middle" x="262.94" y="-385.3" font-family="Times,serif" font-size="14.00">Programmer_ready</text>
<text text-anchor="middle" x="157.2" y="-410.8" font-family="Times,serif" font-size="14.00">1</text>
</g>
<!-- Programmer_ready&#45;&gt;Programmer_start -->
<g id="edge3" class="edge">
<title>Programmer_ready&#45;&gt;Programmer_start</title>
<path fill="none" stroke="black" d="M257.88,-370.8C254.43,-359.05 249.78,-343.24 245.84,-329.84"/>
<polygon fill="black" stroke="black" points="243,-320.18 250.13,-328.5 244.41,-324.97 245.82,-329.77 245.82,-329.77 245.82,-329.77 244.41,-324.97 241.5,-331.04 243,-320.18 243,-320.18"/>
<text text-anchor="middle" x="256.94" y="-341.8" font-family="Times,serif" font-size="14.00">1</text>
</g>
<!-- Programmer_started -->
<g id="node3" class="node">
<title>Programmer_started</title>
<ellipse fill="none" stroke="black" cx="212.94" cy="-215" rx="107.78" ry="18"/>
<text text-anchor="middle" x="212.94" y="-211.3" font-family="Times,serif" font-size="14.00">Programmer_started</text>
</g>
<!-- Programmer_running -->
<g id="node4" class="node">
<title>Programmer_running</title>
<ellipse fill="none" stroke="black" cx="448.94" cy="-215" rx="110.48" ry="18"/>
<text text-anchor="middle" x="448.94" y="-211.3" font-family="Times,serif" font-size="14.00">Programmer_running</text>
</g>
<!-- Programmer_finish -->
<g id="node7" class="node">
<title>Programmer_finish</title>
<polygon fill="none" stroke="black" points="525.94,-146 371.94,-146 371.94,-110 525.94,-110 525.94,-146"/>
<text text-anchor="middle" x="448.94" y="-124.3" font-family="Times,serif" font-size="14.00">Programmer_finish</text>
</g>
<!-- Programmer_running&#45;&gt;Programmer_finish -->
<g id="edge6" class="edge">
<title>Programmer_running&#45;&gt;Programmer_finish</title>
<path fill="none" stroke="black" d="M448.94,-196.8C448.94,-185.16 448.94,-169.55 448.94,-156.24"/>
<polygon fill="black" stroke="black" points="448.94,-146.18 453.44,-156.18 448.94,-151.18 448.94,-156.18 448.94,-156.18 448.94,-156.18 448.94,-151.18 444.44,-156.18 448.94,-146.18 448.94,-146.18"/>
<text text-anchor="middle" x="453.94" y="-167.8" font-family="Times,serif" font-size="14.00">1</text>
</g>
<!-- Programmer_finished -->
<g id="node5" class="node">
<title>Programmer_finished</title>
<ellipse fill="none" stroke="black" cx="448.94" cy="-41" rx="111.28" ry="18"/>
<text text-anchor="middle" x="448.94" y="-37.3" font-family="Times,serif" font-size="14.00">Programmer_finished</text>
</g>
<!-- Programmer_start&#45;&gt;Programmer_started -->
<g id="edge5" class="edge">
<title>Programmer_start&#45;&gt;Programmer_started</title>
<path fill="none" stroke="black" d="M232.88,-283.8C229.43,-272.05 224.78,-256.24 220.84,-242.84"/>
<polygon fill="black" stroke="black" points="218,-233.18 225.13,-241.5 219.41,-237.97 220.82,-242.77 220.82,-242.77 220.82,-242.77 219.41,-237.97 216.5,-244.04 218,-233.18 218,-233.18"/>
<text text-anchor="middle" x="231.94" y="-254.8" font-family="Times,serif" font-size="14.00">1</text>
</g>
<!-- Programmer_start&#45;&gt;Programmer_running -->
<g id="edge4" class="edge">
<title>Programmer_start&#45;&gt;Programmer_running</title>
<path fill="none" stroke="black" d="M280.39,-283.9C314.97,-269.97 363.82,-250.29 400.03,-235.7"/>
<polygon fill="black" stroke="black" points="409.42,-231.92 401.83,-239.83 404.78,-233.79 400.14,-235.66 400.14,-235.66 400.14,-235.66 404.78,-233.79 398.46,-231.48 409.42,-231.92 409.42,-231.92"/>
<text text-anchor="middle" x="360.94" y="-254.8" font-family="Times,serif" font-size="14.00">1</text>
</g>
<!-- Programmer_finish&#45;&gt;Ordinateurs -->
<g id="edge2" class="edge">
<title>Programmer_finish&#45;&gt;Ordinateurs</title>
<path fill="none" stroke="black" d="M371.55,-133.35C279.04,-140.29 132.13,-157.36 95.94,-197 54.92,-241.94 62.75,-319.95 70.62,-360.99"/>
<polygon fill="black" stroke="black" points="72.64,-370.82 66.22,-361.93 71.63,-365.92 70.63,-361.02 70.63,-361.02 70.63,-361.02 71.63,-365.92 75.03,-360.11 72.64,-370.82 72.64,-370.82"/>
<text text-anchor="middle" x="73.94" y="-254.8" font-family="Times,serif" font-size="14.00">2</text>
</g>
<!-- Programmer_finish&#45;&gt;Programmer_finished -->
<g id="edge7" class="edge">
<title>Programmer_finish&#45;&gt;Programmer_finished</title>
<path fill="none" stroke="black" d="M448.94,-109.8C448.94,-98.16 448.94,-82.55 448.94,-69.24"/>
<polygon fill="black" stroke="black" points="448.94,-59.18 453.44,-69.18 448.94,-64.18 448.94,-69.18 448.94,-69.18 448.94,-69.18 448.94,-64.18 444.44,-69.18 448.94,-59.18 448.94,-59.18"/>
<text text-anchor="middle" x="453.94" y="-80.8" font-family="Times,serif" font-size="14.00">1</text>
</g>
<!-- Concevoir_ready -->
<g id="node8" class="node">
<title>Concevoir_ready</title>
<ellipse fill="none" stroke="black" cx="780.94" cy="-563" rx="87.99" ry="18"/>
<text text-anchor="middle" x="780.94" y="-559.3" font-family="Times,serif" font-size="14.00">Concevoir_ready</text>
<text text-anchor="middle" x="688.2" y="-584.8" font-family="Times,serif" font-size="14.00">1</text>
</g>
<!-- Concevoir_start -->
<g id="node12" class="node">
<title>Concevoir_start</title>
<polygon fill="none" stroke="black" points="845.44,-494 716.44,-494 716.44,-458 845.44,-458 845.44,-494"/>
<text text-anchor="middle" x="780.94" y="-472.3" font-family="Times,serif" font-size="14.00">Concevoir_start</text>
</g>
<!-- Concevoir_ready&#45;&gt;Concevoir_start -->
<g id="edge8" class="edge">
<title>Concevoir_ready&#45;&gt;Concevoir_start</title>
<path fill="none" stroke="black" d="M780.94,-544.8C780.94,-533.16 780.94,-517.55 780.94,-504.24"/>
<polygon fill="black" stroke="black" points="780.94,-494.18 785.44,-504.18 780.94,-499.18 780.94,-504.18 780.94,-504.18 780.94,-504.18 780.94,-499.18 776.44,-504.18 780.94,-494.18 780.94,-494.18"/>
<text text-anchor="middle" x="785.94" y="-515.8" font-family="Times,serif" font-size="14.00">1</text>
</g>
<!-- Concevoir_started -->
<g id="node9" class="node">
<title>Concevoir_started</title>
<ellipse fill="none" stroke="black" cx="886.94" cy="-389" rx="94.78" ry="18"/>
<text text-anchor="middle" x="886.94" y="-385.3" font-family="Times,serif" font-size="14.00">Concevoir_started</text>
</g>
<!-- Concevoir_running -->
<g id="node10" class="node">
<title>Concevoir_running</title>
<ellipse fill="none" stroke="black" cx="675.94" cy="-389" rx="98.28" ry="18"/>
<text text-anchor="middle" x="675.94" y="-385.3" font-family="Times,serif" font-size="14.00">Concevoir_running</text>
</g>
<!-- Concevoir_finish -->
<g id="node13" class="node">
<title>Concevoir_finish</title>
<polygon fill="none" stroke="black" points="742.94,-320 608.94,-320 608.94,-284 742.94,-284 742.94,-320"/>
<text text-anchor="middle" x="675.94" y="-298.3" font-family="Times,serif" font-size="14.00">Concevoir_finish</text>
</g>
<!-- Concevoir_running&#45;&gt;Concevoir_finish -->
<g id="edge11" class="edge">
<title>Concevoir_running&#45;&gt;Concevoir_finish</title>
<path fill="none" stroke="black" d="M675.94,-370.8C675.94,-359.16 675.94,-343.55 675.94,-330.24"/>
<polygon fill="black" stroke="black" points="675.94,-320.18 680.44,-330.18 675.94,-325.18 675.94,-330.18 675.94,-330.18 675.94,-330.18 675.94,-325.18 671.44,-330.18 675.94,-320.18 675.94,-320.18"/>
<text text-anchor="middle" x="680.94" y="-341.8" font-family="Times,serif" font-size="14.00">1</text>
</g>
<!-- Concevoir_finished -->
<g id="node11" class="node">
<title>Concevoir_finished</title>
<ellipse fill="none" stroke="black" cx="675.94" cy="-215" rx="98.58" ry="18"/>
<text text-anchor="middle" x="675.94" y="-211.3" font-family="Times,serif" font-size="14.00">Concevoir_finished</text>
</g>
<!-- Concevoir_finished&#45;&gt;Programmer_finish -->
<g id="edge13" class="edge">
<title>Concevoir_finished&#45;&gt;Programmer_finish</title>
<path fill="none" stroke="black" d="M634.84,-198.61C597.63,-184.67 542.6,-164.07 502.07,-148.89"/>
<ellipse fill="black" stroke="black" cx="498.17" cy="-147.43" rx="4" ry="4"/>
<text text-anchor="middle" x="580.94" y="-167.8" font-family="Times,serif" font-size="14.00">1</text>
</g>
<!-- Concevoir_start&#45;&gt;Concevoir_started -->
<g id="edge10" class="edge">
<title>Concevoir_start&#45;&gt;Concevoir_started</title>
<path fill="none" stroke="black" d="M802.39,-457.8C818.41,-444.96 840.46,-427.27 858.03,-413.19"/>
<polygon fill="black" stroke="black" points="866.25,-406.6 861.26,-416.36 862.35,-409.72 858.45,-412.85 858.45,-412.85 858.45,-412.85 862.35,-409.72 855.63,-409.34 866.25,-406.6 866.25,-406.6"/>
<text text-anchor="middle" x="844.94" y="-428.8" font-family="Times,serif" font-size="14.00">1</text>
</g>
<!-- Concevoir_start&#45;&gt;Concevoir_running -->
<g id="edge9" class="edge">
<title>Concevoir_start&#45;&gt;Concevoir_running</title>
<path fill="none" stroke="black" d="M759.7,-457.8C743.94,-445.04 722.27,-427.5 704.93,-413.46"/>
<polygon fill="black" stroke="black" points="696.8,-406.89 707.41,-409.68 700.69,-410.03 704.57,-413.18 704.57,-413.18 704.57,-413.18 700.69,-410.03 701.74,-416.67 696.8,-406.89 696.8,-406.89"/>
<text text-anchor="middle" x="738.94" y="-428.8" font-family="Times,serif" font-size="14.00">1</text>
</g>
<!-- Concevoir_finish&#45;&gt;Concevoir_finished -->
<g id="edge12" class="edge">
<title>Concevoir_finish&#45;&gt;Concevoir_finished</title>
<path fill="none" stroke="black" d="M675.94,-283.8C675.94,-272.16 675.94,-256.55 675.94,-243.24"/>
<polygon fill="black" stroke="black" points="675.94,-233.18 680.44,-243.18 675.94,-238.18 675.94,-243.18 675.94,-243.18 675.94,-243.18 675.94,-238.18 671.44,-243.18 675.94,-233.18 675.94,-233.18"/>
<text text-anchor="middle" x="680.94" y="-254.8" font-family="Times,serif" font-size="14.00">1</text>
</g>
</g>
</svg>
