<?xml version="1.0" encoding="UTF-8" standalone="no"?>
<!DOCTYPE svg PUBLIC "-//W3C//DTD SVG 1.1//EN"
 "http://www.w3.org/Graphics/SVG/1.1/DTD/svg11.dtd">
<!-- Generated by graphviz version 2.43.0 (0)
 -->
<!-- Title: SimpleTemporel Pages: 1 -->
<svg width="161pt" height="370pt"
 viewBox="0.00 0.00 161.00 370.00" xmlns="http://www.w3.org/2000/svg" xmlns:xlink="http://www.w3.org/1999/xlink">
<g id="graph0" class="graph" transform="scale(1 1) rotate(0) translate(4 366)">
<title>SimpleTemporel</title>
<polygon fill="white" stroke="transparent" points="-4,4 -4,-366 157,-366 157,4 -4,4"/>
<text text-anchor="middle" x="76.5" y="-7.8" font-family="Times,serif" font-size="14.00">SimpleTemporel</text>
<!-- P1 -->
<g id="node1" class="node">
<title>P1</title>
<ellipse fill="none" stroke="black" cx="126" cy="-329" rx="27" ry="18"/>
<text text-anchor="middle" x="126" y="-325.3" font-family="Times,serif" font-size="14.00">P1</text>
<text text-anchor="middle" x="94" y="-350.8" font-family="Times,serif" font-size="14.00">1</text>
</g>
<!-- T1 -->
<g id="node5" class="node">
<title>T1</title>
<polygon fill="none" stroke="black" points="126,-275 72,-275 72,-239 126,-239 126,-275"/>
<text text-anchor="middle" x="99" y="-253.3" font-family="Times,serif" font-size="14.00">T1</text>
<text text-anchor="middle" x="48.5" y="-278.8" font-family="Times,serif" font-size="14.00">[2, 20]</text>
</g>
<!-- P1&#45;&gt;T1 -->
<g id="edge1" class="edge">
<title>P1&#45;&gt;T1</title>
<path fill="none" stroke="black" d="M119.6,-311.41C116.56,-303.54 112.86,-293.93 109.43,-285.04"/>
<polygon fill="black" stroke="black" points="105.73,-275.45 113.53,-283.16 107.53,-280.11 109.33,-284.78 109.33,-284.78 109.33,-284.78 107.53,-280.11 105.13,-286.4 105.73,-275.45 105.73,-275.45"/>
</g>
<!-- P2 -->
<g id="node2" class="node">
<title>P2</title>
<ellipse fill="none" stroke="black" cx="27" cy="-185" rx="27" ry="18"/>
<text text-anchor="middle" x="27" y="-181.3" font-family="Times,serif" font-size="14.00">P2</text>
</g>
<!-- T2 -->
<g id="node6" class="node">
<title>T2</title>
<polygon fill="none" stroke="black" points="126,-131 72,-131 72,-95 126,-95 126,-131"/>
<text text-anchor="middle" x="99" y="-109.3" font-family="Times,serif" font-size="14.00">T2</text>
</g>
<!-- P2&#45;&gt;T2 -->
<g id="edge4" class="edge">
<title>P2&#45;&gt;T2</title>
<path fill="none" stroke="black" d="M41.57,-169.83C50.92,-160.75 63.3,-148.71 74.17,-138.14"/>
<polygon fill="black" stroke="black" points="81.4,-131.11 77.37,-141.31 77.81,-134.6 74.23,-138.08 74.23,-138.08 74.23,-138.08 77.81,-134.6 71.09,-134.86 81.4,-131.11 81.4,-131.11"/>
</g>
<!-- P3 -->
<g id="node3" class="node">
<title>P3</title>
<ellipse fill="none" stroke="black" cx="99" cy="-185" rx="27" ry="18"/>
<text text-anchor="middle" x="99" y="-181.3" font-family="Times,serif" font-size="14.00">P3</text>
<text text-anchor="middle" x="67" y="-206.8" font-family="Times,serif" font-size="14.00">2</text>
</g>
<!-- P3&#45;&gt;T2 -->
<g id="edge5" class="edge">
<title>P3&#45;&gt;T2</title>
<path fill="none" stroke="black" d="M99,-166.7C99,-158.98 99,-149.71 99,-141.11"/>
<polygon fill="black" stroke="black" points="99,-131.1 103.5,-141.1 99,-136.1 99,-141.1 99,-141.1 99,-141.1 99,-136.1 94.5,-141.1 99,-131.1 99,-131.1"/>
</g>
<!-- P4 -->
<g id="node4" class="node">
<title>P4</title>
<ellipse fill="none" stroke="black" cx="99" cy="-41" rx="27" ry="18"/>
<text text-anchor="middle" x="99" y="-37.3" font-family="Times,serif" font-size="14.00">P4</text>
<text text-anchor="middle" x="67" y="-62.8" font-family="Times,serif" font-size="14.00">1</text>
</g>
<!-- T1&#45;&gt;P2 -->
<g id="edge2" class="edge">
<title>T1&#45;&gt;P2</title>
<path fill="none" stroke="black" d="M81.2,-238.7C71.51,-229.28 59.44,-217.53 49.14,-207.53"/>
<polygon fill="black" stroke="black" points="41.69,-200.28 51.99,-204.02 45.27,-203.76 48.86,-207.25 48.86,-207.25 48.86,-207.25 45.27,-203.76 45.72,-210.48 41.69,-200.28 41.69,-200.28"/>
</g>
<!-- T1&#45;&gt;P3 -->
<g id="edge3" class="edge">
<title>T1&#45;&gt;P3</title>
<path fill="none" stroke="black" d="M99,-238.7C99,-230.98 99,-221.71 99,-213.11"/>
<polygon fill="black" stroke="black" points="99,-203.1 103.5,-213.1 99,-208.1 99,-213.1 99,-213.1 99,-213.1 99,-208.1 94.5,-213.1 99,-203.1 99,-203.1"/>
</g>
<!-- T2&#45;&gt;P1 -->
<g id="edge7" class="edge">
<title>T2&#45;&gt;P1</title>
<path fill="none" stroke="black" d="M114.61,-131.23C122.37,-140.97 130.95,-153.82 135,-167 148.97,-212.44 140.45,-268.43 133.13,-300.99"/>
<polygon fill="black" stroke="black" points="130.72,-311.08 128.66,-300.31 131.88,-306.22 133.04,-301.35 133.04,-301.35 133.04,-301.35 131.88,-306.22 137.42,-302.4 130.72,-311.08 130.72,-311.08"/>
</g>
<!-- T2&#45;&gt;P4 -->
<g id="edge6" class="edge">
<title>T2&#45;&gt;P4</title>
<path fill="none" stroke="black" d="M99,-94.7C99,-86.98 99,-77.71 99,-69.11"/>
<polygon fill="black" stroke="black" points="99,-59.1 103.5,-69.1 99,-64.1 99,-69.1 99,-69.1 99,-69.1 99,-64.1 94.5,-69.1 99,-59.1 99,-59.1"/>
</g>
</g>
</svg>
