<?xml version="1.0" encoding="UTF-8" standalone="no"?>
<!DOCTYPE svg PUBLIC "-//W3C//DTD SVG 1.1//EN"
 "http://www.w3.org/Graphics/SVG/1.1/DTD/svg11.dtd">
<!-- Generated by graphviz version 2.43.0 (0)
 -->
<!-- Title: exemplePlaceRessource Pages: 1 -->
<svg width="784pt" height="589pt"
 viewBox="0.00 0.00 784.09 589.00" xmlns="http://www.w3.org/2000/svg" xmlns:xlink="http://www.w3.org/1999/xlink">
<g id="graph0" class="graph" transform="scale(1 1) rotate(0) translate(4 585)">
<title>exemplePlaceRessource</title>
<polygon fill="white" stroke="transparent" points="-4,4 -4,-585 780.09,-585 780.09,4 -4,4"/>
<text text-anchor="middle" x="388.04" y="-7.8" font-family="Times,serif" font-size="14.00">exemplePlaceRessource</text>
<!-- Ordinateurs -->
<g id="node1" class="node">
<title>Ordinateurs</title>
<ellipse fill="none" stroke="black" cx="66.94" cy="-389" rx="66.89" ry="18"/>
<text text-anchor="middle" x="66.94" y="-385.3" font-family="Times,serif" font-size="14.00">Ordinateurs</text>
</g>
<!-- Programmer_start -->
<g id="node2" class="node">
<title>Programmer_start</title>
<ellipse fill="none" stroke="black" cx="242.94" cy="-302" rx="96.68" ry="18"/>
<text text-anchor="middle" x="242.94" y="-298.3" font-family="Times,serif" font-size="14.00">Programmer_start</text>
</g>
<!-- Ordinateurs&#45;&gt;Programmer_start -->
<g id="edge1" class="edge">
<title>Ordinateurs&#45;&gt;Programmer_start</title>
<path fill="none" stroke="black" d="M98,-373C126.57,-359.21 169.15,-338.64 200.78,-323.36"/>
<polygon fill="black" stroke="black" points="209.8,-319.01 202.75,-327.41 205.3,-321.18 200.8,-323.35 200.8,-323.35 200.8,-323.35 205.3,-321.18 198.84,-319.3 209.8,-319.01 209.8,-319.01"/>
<text text-anchor="middle" x="170.94" y="-341.8" font-family="Times,serif" font-size="14.00">2</text>
</g>
<!-- Programmer_running -->
<g id="node5" class="node">
<title>Programmer_running</title>
<ellipse fill="none" stroke="black" cx="213.94" cy="-215" rx="110.48" ry="18"/>
<text text-anchor="middle" x="213.94" y="-211.3" font-family="Times,serif" font-size="14.00">Programmer_running</text>
</g>
<!-- Programmer_start&#45;&gt;Programmer_running -->
<g id="edge4" class="edge">
<title>Programmer_start&#45;&gt;Programmer_running</title>
<path fill="none" stroke="black" d="M237.08,-283.8C233.07,-272.05 227.67,-256.24 223.1,-242.84"/>
<polygon fill="black" stroke="black" points="219.8,-233.18 227.29,-241.19 221.42,-237.91 223.03,-242.64 223.03,-242.64 223.03,-242.64 221.42,-237.91 218.77,-244.09 219.8,-233.18 219.8,-233.18"/>
<text text-anchor="middle" x="235.94" y="-254.8" font-family="Times,serif" font-size="14.00">1</text>
</g>
<!-- Programmer_started -->
<g id="node6" class="node">
<title>Programmer_started</title>
<ellipse fill="none" stroke="black" cx="449.94" cy="-215" rx="107.78" ry="18"/>
<text text-anchor="middle" x="449.94" y="-211.3" font-family="Times,serif" font-size="14.00">Programmer_started</text>
</g>
<!-- Programmer_start&#45;&gt;Programmer_started -->
<g id="edge5" class="edge">
<title>Programmer_start&#45;&gt;Programmer_started</title>
<path fill="none" stroke="black" d="M280.91,-285.41C314.88,-271.46 364.83,-250.95 401.63,-235.84"/>
<polygon fill="black" stroke="black" points="411.16,-231.92 403.62,-239.89 406.54,-233.82 401.91,-235.72 401.91,-235.72 401.91,-235.72 406.54,-233.82 400.2,-231.56 411.16,-231.92 411.16,-231.92"/>
<text text-anchor="middle" x="362.94" y="-254.8" font-family="Times,serif" font-size="14.00">1</text>
</g>
<!-- Programmer_finish -->
<g id="node3" class="node">
<title>Programmer_finish</title>
<ellipse fill="none" stroke="black" cx="213.94" cy="-128" rx="100.18" ry="18"/>
<text text-anchor="middle" x="213.94" y="-124.3" font-family="Times,serif" font-size="14.00">Programmer_finish</text>
</g>
<!-- Programmer_finish&#45;&gt;Ordinateurs -->
<g id="edge2" class="edge">
<title>Programmer_finish&#45;&gt;Ordinateurs</title>
<path fill="none" stroke="black" d="M167.61,-144C142.09,-154.71 112.17,-171.74 94.94,-197 60.94,-246.86 60.92,-321.08 63.9,-360.72"/>
<polygon fill="black" stroke="black" points="64.79,-370.93 59.44,-361.36 64.36,-365.95 63.92,-360.97 63.92,-360.97 63.92,-360.97 64.36,-365.95 68.4,-360.58 64.79,-370.93 64.79,-370.93"/>
<text text-anchor="middle" x="76.94" y="-254.8" font-family="Times,serif" font-size="14.00">2</text>
</g>
<!-- Programmer_finished -->
<g id="node7" class="node">
<title>Programmer_finished</title>
<ellipse fill="none" stroke="black" cx="213.94" cy="-41" rx="111.28" ry="18"/>
<text text-anchor="middle" x="213.94" y="-37.3" font-family="Times,serif" font-size="14.00">Programmer_finished</text>
</g>
<!-- Programmer_finish&#45;&gt;Programmer_finished -->
<g id="edge7" class="edge">
<title>Programmer_finish&#45;&gt;Programmer_finished</title>
<path fill="none" stroke="black" d="M213.94,-109.8C213.94,-98.16 213.94,-82.55 213.94,-69.24"/>
<polygon fill="black" stroke="black" points="213.94,-59.18 218.44,-69.18 213.94,-64.18 213.94,-69.18 213.94,-69.18 213.94,-69.18 213.94,-64.18 209.44,-69.18 213.94,-59.18 213.94,-59.18"/>
<text text-anchor="middle" x="218.94" y="-80.8" font-family="Times,serif" font-size="14.00">1</text>
</g>
<!-- Programmer_ready -->
<g id="node4" class="node">
<title>Programmer_ready</title>
<ellipse fill="none" stroke="black" cx="252.94" cy="-389" rx="100.98" ry="18"/>
<text text-anchor="middle" x="252.94" y="-385.3" font-family="Times,serif" font-size="14.00">Programmer_ready</text>
</g>
<!-- Programmer_ready&#45;&gt;Programmer_start -->
<g id="edge3" class="edge">
<title>Programmer_ready&#45;&gt;Programmer_start</title>
<path fill="none" stroke="black" d="M250.92,-370.8C249.55,-359.16 247.71,-343.55 246.15,-330.24"/>
<polygon fill="black" stroke="black" points="244.96,-320.18 250.6,-329.58 245.55,-325.14 246.13,-330.11 246.13,-330.11 246.13,-330.11 245.55,-325.14 241.66,-330.63 244.96,-320.18 244.96,-320.18"/>
<text text-anchor="middle" x="253.94" y="-341.8" font-family="Times,serif" font-size="14.00">1</text>
</g>
<!-- Programmer_running&#45;&gt;Programmer_finish -->
<g id="edge6" class="edge">
<title>Programmer_running&#45;&gt;Programmer_finish</title>
<path fill="none" stroke="black" d="M213.94,-196.8C213.94,-185.16 213.94,-169.55 213.94,-156.24"/>
<polygon fill="black" stroke="black" points="213.94,-146.18 218.44,-156.18 213.94,-151.18 213.94,-156.18 213.94,-156.18 213.94,-156.18 213.94,-151.18 209.44,-156.18 213.94,-146.18 213.94,-146.18"/>
<text text-anchor="middle" x="218.94" y="-167.8" font-family="Times,serif" font-size="14.00">1</text>
</g>
<!-- Concevoir_ready -->
<g id="node8" class="node">
<title>Concevoir_ready</title>
<ellipse fill="none" stroke="black" cx="482.94" cy="-563" rx="87.99" ry="18"/>
<text text-anchor="middle" x="482.94" y="-559.3" font-family="Times,serif" font-size="14.00">Concevoir_ready</text>
</g>
<!-- Concevoir_start -->
<g id="node9" class="node">
<title>Concevoir_start</title>
<ellipse fill="none" stroke="black" cx="482.94" cy="-476" rx="83.69" ry="18"/>
<text text-anchor="middle" x="482.94" y="-472.3" font-family="Times,serif" font-size="14.00">Concevoir_start</text>
</g>
<!-- Concevoir_ready&#45;&gt;Concevoir_start -->
<g id="edge8" class="edge">
<title>Concevoir_ready&#45;&gt;Concevoir_start</title>
<path fill="none" stroke="black" d="M482.94,-544.8C482.94,-533.16 482.94,-517.55 482.94,-504.24"/>
<polygon fill="black" stroke="black" points="482.94,-494.18 487.44,-504.18 482.94,-499.18 482.94,-504.18 482.94,-504.18 482.94,-504.18 482.94,-499.18 478.44,-504.18 482.94,-494.18 482.94,-494.18"/>
<text text-anchor="middle" x="487.94" y="-515.8" font-family="Times,serif" font-size="14.00">1</text>
</g>
<!-- Concevoir_running -->
<g id="node10" class="node">
<title>Concevoir_running</title>
<ellipse fill="none" stroke="black" cx="677.94" cy="-389" rx="98.28" ry="18"/>
<text text-anchor="middle" x="677.94" y="-385.3" font-family="Times,serif" font-size="14.00">Concevoir_running</text>
</g>
<!-- Concevoir_start&#45;&gt;Concevoir_running -->
<g id="edge9" class="edge">
<title>Concevoir_start&#45;&gt;Concevoir_running</title>
<path fill="none" stroke="black" d="M518.26,-459.61C550.16,-445.7 597.31,-425.15 632.11,-409.98"/>
<polygon fill="black" stroke="black" points="641.57,-405.85 634.2,-413.98 636.99,-407.85 632.4,-409.85 632.4,-409.85 632.4,-409.85 636.99,-407.85 630.61,-405.73 641.57,-405.85 641.57,-405.85"/>
<text text-anchor="middle" x="596.94" y="-428.8" font-family="Times,serif" font-size="14.00">1</text>
</g>
<!-- Concevoir_started -->
<g id="node11" class="node">
<title>Concevoir_started</title>
<ellipse fill="none" stroke="black" cx="466.94" cy="-389" rx="94.78" ry="18"/>
<text text-anchor="middle" x="466.94" y="-385.3" font-family="Times,serif" font-size="14.00">Concevoir_started</text>
</g>
<!-- Concevoir_start&#45;&gt;Concevoir_started -->
<g id="edge10" class="edge">
<title>Concevoir_start&#45;&gt;Concevoir_started</title>
<path fill="none" stroke="black" d="M479.71,-457.8C477.52,-446.16 474.58,-430.55 472.07,-417.24"/>
<polygon fill="black" stroke="black" points="470.18,-407.18 476.45,-416.17 471.1,-412.09 472.03,-417 472.03,-417 472.03,-417 471.1,-412.09 467.6,-417.84 470.18,-407.18 470.18,-407.18"/>
<text text-anchor="middle" x="479.94" y="-428.8" font-family="Times,serif" font-size="14.00">1</text>
</g>
<!-- Concevoir_finish -->
<g id="node12" class="node">
<title>Concevoir_finish</title>
<ellipse fill="none" stroke="black" cx="676.94" cy="-302" rx="87.18" ry="18"/>
<text text-anchor="middle" x="676.94" y="-298.3" font-family="Times,serif" font-size="14.00">Concevoir_finish</text>
</g>
<!-- Concevoir_running&#45;&gt;Concevoir_finish -->
<g id="edge11" class="edge">
<title>Concevoir_running&#45;&gt;Concevoir_finish</title>
<path fill="none" stroke="black" d="M677.74,-370.8C677.6,-359.16 677.42,-343.55 677.26,-330.24"/>
<polygon fill="black" stroke="black" points="677.15,-320.18 681.76,-330.12 677.2,-325.18 677.26,-330.17 677.26,-330.17 677.26,-330.17 677.2,-325.18 672.76,-330.23 677.15,-320.18 677.15,-320.18"/>
<text text-anchor="middle" x="681.94" y="-341.8" font-family="Times,serif" font-size="14.00">1</text>
</g>
<!-- Concevoir_finished -->
<g id="node13" class="node">
<title>Concevoir_finished</title>
<ellipse fill="none" stroke="black" cx="675.94" cy="-215" rx="98.58" ry="18"/>
<text text-anchor="middle" x="675.94" y="-211.3" font-family="Times,serif" font-size="14.00">Concevoir_finished</text>
</g>
<!-- Concevoir_finish&#45;&gt;Concevoir_finished -->
<g id="edge12" class="edge">
<title>Concevoir_finish&#45;&gt;Concevoir_finished</title>
<path fill="none" stroke="black" d="M676.74,-283.8C676.6,-272.16 676.42,-256.55 676.26,-243.24"/>
<polygon fill="black" stroke="black" points="676.15,-233.18 680.76,-243.12 676.2,-238.18 676.26,-243.17 676.26,-243.17 676.26,-243.17 676.2,-238.18 671.76,-243.23 676.15,-233.18 676.15,-233.18"/>
<text text-anchor="middle" x="680.94" y="-254.8" font-family="Times,serif" font-size="14.00">1</text>
</g>
<!-- Concevoir_finished&#45;&gt;Programmer_finish -->
<g id="edge13" class="edge">
<title>Concevoir_finished&#45;&gt;Programmer_finish</title>
<path fill="none" stroke="black" d="M608.77,-201.64C523.82,-186.01 378,-159.18 289.34,-142.87"/>
<ellipse fill="black" stroke="black" cx="285.14" cy="-142.1" rx="4" ry="4"/>
<text text-anchor="middle" x="476.94" y="-167.8" font-family="Times,serif" font-size="14.00">1</text>
</g>
</g>
</svg>
