<?xml version="1.0" encoding="UTF-8"?><svg xmlns="http://www.w3.org/2000/svg" xmlns:xlink="http://www.w3.org/1999/xlink" stroke-dasharray="none" shape-rendering="auto" font-family="'Dialog'" width="1151" text-rendering="auto" fill-opacity="1" contentScriptType="text/ecmascript" color-interpolation="auto" color-rendering="auto" preserveAspectRatio="xMidYMid meet" font-size="12px" xmlns:diagram="http://www.eclipse.org/sirius/diagram/1.1.0" diagram:semanticRoot="platform:/resource/fr.n7.simplepdl.samples/pdl-sujet-ressources.simplepdl#/" viewBox="0 0 1151 759" fill="black" stroke="black" image-rendering="auto" stroke-miterlimit="10" zoomAndPan="magnify" version="1.0" stroke-linecap="square" stroke-linejoin="miter" contentStyleType="text/css" font-style="normal" height="759" stroke-width="1" stroke-dashoffset="0" font-weight="normal" stroke-opacity="1">
    <!--Generated by the Batik Graphics2D SVG Generator-->
    <defs id="genericDefs"/>
    <g>
        <defs id="defs1">
            <clipPath clipPathUnits="userSpaceOnUse" id="clipPath1">
                <path d="M419 289 L566 289 L566 402 L419 402 L419 289 Z"/>
            </clipPath>
            <clipPath clipPathUnits="userSpaceOnUse" id="clipPath2">
                <path d="M420 290 L569 290 L569 402 L420 402 L420 290 Z"/>
            </clipPath>
            <clipPath clipPathUnits="userSpaceOnUse" id="clipPath3">
                <path d="M324 29 L442 29 L442 122 L324 122 L324 29 Z"/>
            </clipPath>
            <clipPath clipPathUnits="userSpaceOnUse" id="clipPath4">
                <path d="M325 30 L446 30 L446 122 L325 122 L325 30 Z"/>
            </clipPath>
            <clipPath clipPathUnits="userSpaceOnUse" id="clipPath5">
                <path d="M79 289 L241 289 L241 407 L79 407 L79 289 Z"/>
            </clipPath>
            <clipPath clipPathUnits="userSpaceOnUse" id="clipPath6">
                <path d="M80 290 L245 290 L245 407 L80 407 L80 290 Z"/>
            </clipPath>
            <clipPath clipPathUnits="userSpaceOnUse" id="clipPath7">
                <path d="M704 289 L857 289 L857 393 L704 393 L704 289 Z"/>
            </clipPath>
            <clipPath clipPathUnits="userSpaceOnUse" id="clipPath8">
                <path d="M705 290 L861 290 L861 393 L705 393 L705 290 Z"/>
            </clipPath>
            <clipPath clipPathUnits="userSpaceOnUse" id="clipPath9">
                <path d="M749 29 L896 29 L896 162 L749 162 L749 29 Z"/>
            </clipPath>
            <clipPath clipPathUnits="userSpaceOnUse" id="clipPath10">
                <path d="M749 29 L899 29 L899 162 L749 162 L749 29 Z"/>
            </clipPath>
            <clipPath clipPathUnits="userSpaceOnUse" id="clipPath11">
                <path d="M749 29 L900 29 L900 162 L749 162 L749 29 Z"/>
            </clipPath>
            <clipPath clipPathUnits="userSpaceOnUse" id="clipPath12">
                <path d="M54 9 L172 9 L172 114 L54 114 L54 9 Z"/>
            </clipPath>
            <clipPath clipPathUnits="userSpaceOnUse" id="clipPath13">
                <path d="M54 9 L175 9 L175 114 L54 114 L54 9 Z"/>
            </clipPath>
            <clipPath clipPathUnits="userSpaceOnUse" id="clipPath14">
                <path d="M113 465 L241 465 L241 568 L113 568 L113 465 Z"/>
            </clipPath>
            <clipPath clipPathUnits="userSpaceOnUse" id="clipPath15">
                <path d="M113 465 L244 465 L244 568 L113 568 L113 465 Z"/>
            </clipPath>
            <clipPath clipPathUnits="userSpaceOnUse" id="clipPath16">
                <path d="M9 149 L147 149 L147 252 L9 252 L9 149 Z"/>
            </clipPath>
            <clipPath clipPathUnits="userSpaceOnUse" id="clipPath17">
                <path d="M9 149 L150 149 L150 252 L9 252 L9 149 Z"/>
            </clipPath>
            <clipPath clipPathUnits="userSpaceOnUse" id="clipPath18">
                <path d="M674 444 L802 444 L802 541 L674 541 L674 444 Z"/>
            </clipPath>
            <clipPath clipPathUnits="userSpaceOnUse" id="clipPath19">
                <path d="M674 444 L805 444 L805 541 L674 541 L674 444 Z"/>
            </clipPath>
            <clipPath clipPathUnits="userSpaceOnUse" id="clipPath20">
                <path d="M419 454 L577 454 L577 557 L419 557 L419 454 Z"/>
            </clipPath>
            <clipPath clipPathUnits="userSpaceOnUse" id="clipPath21">
                <path d="M419 454 L580 454 L580 557 L419 557 L419 454 Z"/>
            </clipPath>
            <clipPath clipPathUnits="userSpaceOnUse" id="clipPath22">
                <path d="M969 484 L1122 484 L1122 582 L969 582 L969 484 Z"/>
            </clipPath>
            <clipPath clipPathUnits="userSpaceOnUse" id="clipPath23">
                <path d="M970 485 L1126 485 L1126 582 L970 582 L970 485 Z"/>
            </clipPath>
            <clipPath clipPathUnits="userSpaceOnUse" id="clipPath24">
                <path d="M1014 149 L1142 149 L1142 312 L1014 312 L1014 149 Z"/>
            </clipPath>
            <clipPath clipPathUnits="userSpaceOnUse" id="clipPath25">
                <path d="M1014 149 L1146 149 L1146 312 L1014 312 L1014 149 Z"/>
            </clipPath>
            <clipPath clipPathUnits="userSpaceOnUse" id="clipPath26">
                <path d="M1014 149 L1145 149 L1145 312 L1014 312 L1014 149 Z"/>
            </clipPath>
            <clipPath clipPathUnits="userSpaceOnUse" id="clipPath27">
                <path d="M734 644 L925 644 L925 750 L734 750 L734 644 Z"/>
            </clipPath>
            <clipPath clipPathUnits="userSpaceOnUse" id="clipPath28">
                <path d="M734 644 L928 644 L928 750 L734 750 L734 644 Z"/>
            </clipPath>
            <clipPath clipPathUnits="userSpaceOnUse" id="clipPath29">
                <path d="M-1 -1 L1152 -1 L1152 760 L-1 760 L-1 -1 Z"/>
            </clipPath>
            <clipPath clipPathUnits="userSpaceOnUse" id="clipPath30">
                <path d="M514 174 L617 174 L617 194 L514 194 L514 174 Z"/>
            </clipPath>
            <clipPath clipPathUnits="userSpaceOnUse" id="clipPath31">
                <path d="M695 292 L708 292 L708 303 L695 303 L695 292 Z"/>
            </clipPath>
            <clipPath clipPathUnits="userSpaceOnUse" id="clipPath32">
                <path d="M606 123 L696 123 L696 143 L606 143 L606 123 Z"/>
            </clipPath>
            <clipPath clipPathUnits="userSpaceOnUse" id="clipPath33">
                <path d="M730 281 L742 281 L742 293 L730 293 L730 281 Z"/>
            </clipPath>
            <clipPath clipPathUnits="userSpaceOnUse" id="clipPath34">
                <path d="M193 159 L289 159 L289 179 L193 179 L193 159 Z"/>
            </clipPath>
            <clipPath clipPathUnits="userSpaceOnUse" id="clipPath35">
                <path d="M205 281 L217 281 L217 293 L205 293 L205 281 Z"/>
            </clipPath>
            <clipPath clipPathUnits="userSpaceOnUse" id="clipPath36">
                <path d="M333 204 L423 204 L423 224 L333 224 L333 204 Z"/>
            </clipPath>
            <clipPath clipPathUnits="userSpaceOnUse" id="clipPath37">
                <path d="M463 280 L473 280 L473 293 L463 293 L463 280 Z"/>
            </clipPath>
            <clipPath clipPathUnits="userSpaceOnUse" id="clipPath38">
                <path d="M263 327 L366 327 L366 347 L263 347 L263 327 Z"/>
            </clipPath>
            <clipPath clipPathUnits="userSpaceOnUse" id="clipPath39">
                <path d="M411 341 L423 341 L423 352 L411 352 L411 341 Z"/>
            </clipPath>
            <clipPath clipPathUnits="userSpaceOnUse" id="clipPath40">
                <path d="M439 73 L451 73 L451 84 L439 84 L439 73 Z"/>
            </clipPath>
            <clipPath clipPathUnits="userSpaceOnUse" id="clipPath41">
                <path d="M785 281 L796 281 L796 293 L785 293 L785 281 Z"/>
            </clipPath>
            <clipPath clipPathUnits="userSpaceOnUse" id="clipPath42">
                <path d="M242 48 L257 48 L257 68 L242 68 L242 48 Z"/>
            </clipPath>
            <clipPath clipPathUnits="userSpaceOnUse" id="clipPath43">
                <path d="M316 67 L328 67 L328 78 L316 78 L316 67 Z"/>
            </clipPath>
            <clipPath clipPathUnits="userSpaceOnUse" id="clipPath44">
                <path d="M214 111 L229 111 L229 131 L214 131 L214 111 Z"/>
            </clipPath>
            <clipPath clipPathUnits="userSpaceOnUse" id="clipPath45">
                <path d="M315 97 L328 97 L328 107 L315 107 L315 97 Z"/>
            </clipPath>
            <clipPath clipPathUnits="userSpaceOnUse" id="clipPath46">
                <path d="M423 246 L438 246 L438 266 L423 266 L423 246 Z"/>
            </clipPath>
            <clipPath clipPathUnits="userSpaceOnUse" id="clipPath47">
                <path d="M696 320 L708 320 L708 331 L696 331 L696 320 Z"/>
            </clipPath>
            <clipPath clipPathUnits="userSpaceOnUse" id="clipPath48">
                <path d="M720 415 L754 415 L754 438 L720 438 L720 415 Z"/>
            </clipPath>
            <clipPath clipPathUnits="userSpaceOnUse" id="clipPath49">
                <path d="M759 390 L770 390 L770 403 L759 403 L759 390 Z"/>
            </clipPath>
            <clipPath clipPathUnits="userSpaceOnUse" id="clipPath50">
                <path d="M139 437 L154 437 L154 457 L139 457 L139 437 Z"/>
            </clipPath>
            <clipPath clipPathUnits="userSpaceOnUse" id="clipPath51">
                <path d="M162 404 L173 404 L173 416 L162 416 L162 404 Z"/>
            </clipPath>
            <clipPath clipPathUnits="userSpaceOnUse" id="clipPath52">
                <path d="M89 264 L104 264 L104 284 L89 284 L89 264 Z"/>
            </clipPath>
            <clipPath clipPathUnits="userSpaceOnUse" id="clipPath53">
                <path d="M120 280 L131 280 L131 293 L120 293 L120 280 Z"/>
            </clipPath>
            <clipPath clipPathUnits="userSpaceOnUse" id="clipPath54">
                <path d="M269 279 L284 279 L284 299 L269 299 L269 279 Z"/>
            </clipPath>
            <clipPath clipPathUnits="userSpaceOnUse" id="clipPath55">
                <path d="M410 313 L423 313 L423 324 L410 324 L410 313 Z"/>
            </clipPath>
            <clipPath clipPathUnits="userSpaceOnUse" id="clipPath56">
                <path d="M464 424 L479 424 L479 444 L464 444 L464 424 Z"/>
            </clipPath>
            <clipPath clipPathUnits="userSpaceOnUse" id="clipPath57">
                <path d="M488 399 L499 399 L499 411 L488 411 L488 399 Z"/>
            </clipPath>
            <clipPath clipPathUnits="userSpaceOnUse" id="clipPath58">
                <path d="M897 409 L994 409 L994 429 L897 429 L897 409 Z"/>
            </clipPath>
            <clipPath clipPathUnits="userSpaceOnUse" id="clipPath59">
                <path d="M961 506 L973 506 L973 518 L961 518 L961 506 Z"/>
            </clipPath>
            <clipPath clipPathUnits="userSpaceOnUse" id="clipPath60">
                <path d="M1065 476 L1076 476 L1076 488 L1065 488 L1065 476 Z"/>
            </clipPath>
            <clipPath clipPathUnits="userSpaceOnUse" id="clipPath61">
                <path d="M924 593 L939 593 L939 613 L924 613 L924 593 Z"/>
            </clipPath>
            <clipPath clipPathUnits="userSpaceOnUse" id="clipPath62">
                <path d="M1040 578 L1053 578 L1053 589 L1040 589 L1040 578 Z"/>
            </clipPath>
        </defs>
        <g font-size="11px" fill="rgb(209,209,209)" font-family="'Ubuntu'" stroke-linejoin="round" stroke="rgb(209,209,209)" stroke-width="0" stroke-miterlimit="0">
            <ellipse rx="71.5" ry="54.5" clip-path="url(#clipPath1)" cx="491.5" cy="344.5" stroke="none"/>
        </g>
        <g font-size="11px" stroke-width="1.1" font-family="'Ubuntu'" stroke-linecap="butt">
            <ellipse rx="71.5" fill="none" ry="54.5" clip-path="url(#clipPath1)" cx="491.5" cy="344.5"/>
            <text x="440" xml:space="preserve" font-size="15px" y="351" clip-path="url(#clipPath2)" stroke="none">Redactiontests</text>
            <ellipse clip-path="url(#clipPath3)" fill="rgb(209,209,209)" rx="57" cx="382" ry="44.5" cy="74.5" stroke="none"/>
            <ellipse rx="57" fill="none" ry="44.5" clip-path="url(#clipPath3)" cx="382" cy="74.5"/>
            <text x="343" xml:space="preserve" font-size="15px" y="81" clip-path="url(#clipPath4)" stroke="none">Conception</text>
            <ellipse clip-path="url(#clipPath5)" fill="rgb(209,209,209)" rx="79" cx="159" ry="57" cy="347" stroke="none"/>
            <ellipse rx="79" fill="none" ry="57" clip-path="url(#clipPath5)" cx="159" cy="347"/>
            <text x="105" xml:space="preserve" font-size="15px" y="354" clip-path="url(#clipPath6)" stroke="none">Programmation</text>
            <ellipse clip-path="url(#clipPath7)" fill="rgb(209,209,209)" rx="74.5" cx="779.5" ry="50" cy="340" stroke="none"/>
            <ellipse rx="74.5" fill="none" ry="50" clip-path="url(#clipPath7)" cx="779.5" cy="340"/>
            <text x="732" xml:space="preserve" font-size="15px" y="347" clip-path="url(#clipPath8)" stroke="none">RedactionDoc</text>
            <rect x="750" y="30" clip-path="url(#clipPath9)" fill="rgb(253,206,137)" width="145" height="131" stroke="none"/>
            <rect x="750" y="30" clip-path="url(#clipPath9)" fill="none" width="144" height="130" stroke-width="0.1"/>
            <text x="773" font-size="15px" y="73" clip-path="url(#clipPath10)" stroke="none" stroke-width="0.1" xml:space="preserve">Conception a </text>
            <text x="779" font-size="15px" y="91" clip-path="url(#clipPath10)" stroke="none" stroke-width="0.1" xml:space="preserve">besoin de 2 </text>
            <text x="752" font-size="15px" y="109" clip-path="url(#clipPath10)" stroke="none" stroke-width="0.1" xml:space="preserve">machines alors que </text>
            <text x="768" font-size="15px" y="127" clip-path="url(#clipPath11)" stroke="none" stroke-width="0.1" xml:space="preserve">RedactionDoc1</text>
            <polygon fill="rgb(194,239,255)" stroke-width="0.1" clip-path="url(#clipPath12)" points=" 113 10 171 61 113 113 55 61" stroke="none"/>
            <polygon fill="none" stroke-width="0.1" clip-path="url(#clipPath12)" points=" 113 10 171 61 113 113 55 61"/>
            <text x="60" font-size="15px" y="66" clip-path="url(#clipPath13)" stroke="none" stroke-width="0.1" xml:space="preserve">concepteur  : 3</text>
            <polygon fill="rgb(194,239,255)" stroke-width="0.1" clip-path="url(#clipPath14)" points=" 177 466 240 516 177 567 114 516" stroke="none"/>
            <polygon fill="none" stroke-width="0.1" clip-path="url(#clipPath14)" points=" 177 466 240 516 177 567 114 516"/>
            <text x="119" font-size="15px" y="521" clip-path="url(#clipPath15)" stroke="none" stroke-width="0.1" xml:space="preserve">developpeur  : 2</text>
            <polygon fill="rgb(194,239,255)" stroke-width="0.1" clip-path="url(#clipPath16)" points=" 78 150 146 200 78 251 10 200" stroke="none"/>
            <polygon fill="none" stroke-width="0.1" clip-path="url(#clipPath16)" points=" 78 150 146 200 78 251 10 200"/>
            <text x="35" font-size="15px" y="205" clip-path="url(#clipPath17)" stroke="none" stroke-width="0.1" xml:space="preserve">machine  : 4</text>
            <polygon fill="rgb(194,239,255)" stroke-width="0.1" clip-path="url(#clipPath18)" points=" 738 445 801 492 738 540 675 492" stroke="none"/>
            <polygon fill="none" stroke-width="0.1" clip-path="url(#clipPath18)" points=" 738 445 801 492 738 540 675 492"/>
            <text x="691" font-size="15px" y="497" clip-path="url(#clipPath19)" stroke="none" stroke-width="0.1" xml:space="preserve">redacteur  : 1</text>
            <polygon fill="rgb(194,239,255)" stroke-width="0.1" clip-path="url(#clipPath20)" points=" 498 455 576 505 498 556 420 505" stroke="none"/>
            <polygon fill="none" stroke-width="0.1" clip-path="url(#clipPath20)" points=" 498 455 576 505 498 556 420 505"/>
            <text x="459" font-size="15px" y="510" clip-path="url(#clipPath21)" stroke="none" stroke-width="0.1" xml:space="preserve">testeur  : 2</text>
            <ellipse clip-path="url(#clipPath22)" fill="rgb(209,209,209)" rx="74.5" cx="1044.5" ry="47" cy="532" stroke="none" stroke-width="0.1"/>
            <ellipse rx="74.5" fill="none" ry="47" clip-path="url(#clipPath22)" cx="1044.5" cy="532"/>
            <text x="1000" xml:space="preserve" font-size="15px" y="539" clip-path="url(#clipPath23)" stroke="none">Déploiement</text>
            <rect x="1015" y="150" clip-path="url(#clipPath24)" fill="rgb(253,206,137)" width="126" height="161" stroke="none"/>
            <rect x="1015" y="150" clip-path="url(#clipPath24)" fill="none" width="125" height="160" stroke-width="0.1"/>
            <text x="1026" font-size="15px" y="217" clip-path="url(#clipPath25)" stroke="none" stroke-width="0.1" xml:space="preserve">Commencer à </text>
            <text x="1020" font-size="15px" y="235" clip-path="url(#clipPath26)" stroke="none" stroke-width="0.1" xml:space="preserve">déployer quand </text>
            <text x="1036" font-size="15px" y="253" clip-path="url(#clipPath26)" stroke="none" stroke-width="0.1" xml:space="preserve">tout est fini</text>
            <polygon fill="rgb(194,239,255)" stroke-width="0.1" clip-path="url(#clipPath27)" points=" 829 645 924 697 829 749 735 697" stroke="none"/>
            <polygon fill="none" stroke-width="0.1" clip-path="url(#clipPath27)" points=" 829 645 924 697 829 749 735 697"/>
            <text x="781" font-size="15px" y="702" clip-path="url(#clipPath28)" stroke="none" stroke-width="0.1" xml:space="preserve">deployeur  : 3</text>
        </g>
        <g fill="rgb(156,12,12)" font-size="15px" stroke-width="2.1" font-family="'Ubuntu'" stroke-linecap="butt" stroke="rgb(156,12,12)">
            <line y2="214" fill="none" x1="436" clip-path="url(#clipPath29)" x2="544" y1="121"/>
            <line y2="300" fill="none" x1="544" clip-path="url(#clipPath29)" x2="705" y1="214"/>
            <text fill="black" x="515" xml:space="preserve" y="189" clip-path="url(#clipPath30)" stroke="none">finishToFinish</text>
            <line y2="300" fill="none" x1="697" clip-path="url(#clipPath31)" x2="705" y1="299"/>
            <line y2="294" fill="none" x1="705" clip-path="url(#clipPath31)" x2="700" y1="300"/>
            <line clip-path="url(#clipPath29)" fill="none" x1="441" x2="544" y1="88" y2="110" stroke="rgb(77,137,20)"/>
            <line clip-path="url(#clipPath29)" fill="none" x1="544" x2="640" y1="110" y2="170" stroke="rgb(77,137,20)"/>
            <line clip-path="url(#clipPath29)" fill="none" x1="640" x2="739" y1="170" y2="290" stroke="rgb(77,137,20)"/>
            <text fill="black" x="607" xml:space="preserve" y="138" clip-path="url(#clipPath32)" stroke="none">startToStart</text>
            <line clip-path="url(#clipPath33)" fill="none" x1="732" x2="739" y1="287" y2="290" stroke="rgb(77,137,20)"/>
            <line clip-path="url(#clipPath33)" fill="none" x1="739" x2="737" y1="290" y2="283" stroke="rgb(77,137,20)"/>
            <line clip-path="url(#clipPath29)" fill="none" x1="346" x2="207" y1="121" y2="290" stroke="rgb(114,73,110)"/>
            <text fill="black" x="194" xml:space="preserve" y="174" clip-path="url(#clipPath34)" stroke="none">finishToStart</text>
            <line clip-path="url(#clipPath35)" fill="none" x1="209" x2="207" y1="283" y2="290" stroke="rgb(114,73,110)"/>
            <line clip-path="url(#clipPath35)" fill="none" x1="207" x2="214" y1="290" y2="286" stroke="rgb(114,73,110)"/>
            <line clip-path="url(#clipPath29)" fill="none" x1="401" x2="470" y1="121" y2="290" stroke="rgb(77,137,20)"/>
            <text fill="black" x="334" xml:space="preserve" y="219" clip-path="url(#clipPath36)" stroke="none">startToStart</text>
            <line clip-path="url(#clipPath37)" fill="none" x1="465" x2="470" y1="285" y2="290" stroke="rgb(77,137,20)"/>
            <line clip-path="url(#clipPath37)" fill="none" x1="470" x2="470" y1="290" y2="282" stroke="rgb(77,137,20)"/>
            <line y2="346" fill="none" x1="240" clip-path="url(#clipPath29)" x2="420" y1="346"/>
            <text fill="black" x="264" xml:space="preserve" y="342" clip-path="url(#clipPath38)" stroke="none">finishToFinish</text>
            <line y2="346" fill="none" x1="413" clip-path="url(#clipPath39)" x2="420" y1="349"/>
            <line y2="343" fill="none" x1="420" clip-path="url(#clipPath39)" x2="413" y1="346"/>
            <line clip-path="url(#clipPath29)" fill="none" x1="750" x2="441" y1="92" y2="78" stroke-dasharray="5,5" stroke="rgb(252,175,62)"/>
            <line clip-path="url(#clipPath40)" fill="none" x1="448" x2="441" y1="75" y2="78" stroke="rgb(252,175,62)"/>
            <line clip-path="url(#clipPath40)" fill="none" x1="441" x2="448" y1="78" y2="81" stroke="rgb(252,175,62)"/>
            <line clip-path="url(#clipPath29)" fill="none" x1="811" x2="789" y1="161" y2="290" stroke-dasharray="5,5" stroke="rgb(252,175,62)"/>
            <line clip-path="url(#clipPath41)" fill="none" x1="787" x2="789" y1="283" y2="290" stroke="rgb(252,175,62)"/>
            <line clip-path="url(#clipPath41)" fill="none" x1="789" x2="793" y1="290" y2="284" stroke="rgb(252,175,62)"/>
            <line clip-path="url(#clipPath29)" fill="none" x1="171" x2="325" y1="65" y2="72" stroke-dasharray="2.1,2.1" stroke="rgb(39,76,114)"/>
        </g>
        <g stroke-linecap="butt" font-size="15px" fill="rgb(39,76,114)" font-family="'Ubuntu'" stroke-dasharray="2.1,2.1" stroke="rgb(39,76,114)" font-weight="bold" stroke-width="2.1">
            <text x="243" xml:space="preserve" y="63" clip-path="url(#clipPath42)" stroke="none">2</text>
            <line clip-path="url(#clipPath43)" fill="none" x1="318" x2="325" y1="75" y2="72" stroke-dasharray="none"/>
            <line clip-path="url(#clipPath43)" fill="none" x1="325" x2="318" y1="72" y2="69" stroke-dasharray="none"/>
            <line y2="99" fill="none" x1="146" clip-path="url(#clipPath29)" x2="325" y1="173"/>
            <text x="215" xml:space="preserve" y="126" clip-path="url(#clipPath44)" stroke="none">2</text>
            <line clip-path="url(#clipPath45)" fill="none" x1="320" x2="325" y1="104" y2="99" stroke-dasharray="none"/>
            <line clip-path="url(#clipPath45)" fill="none" x1="325" x2="317" y1="99" y2="99" stroke-dasharray="none"/>
            <line y2="326" fill="none" x1="146" clip-path="url(#clipPath29)" x2="705" y1="214"/>
            <text x="424" xml:space="preserve" y="261" clip-path="url(#clipPath46)" stroke="none">1</text>
            <line clip-path="url(#clipPath47)" fill="none" x1="698" x2="705" y1="328" y2="326" stroke-dasharray="none"/>
            <line clip-path="url(#clipPath47)" fill="none" x1="705" x2="699" y1="326" y2="322" stroke-dasharray="none"/>
            <line y2="392" fill="none" x1="751" clip-path="url(#clipPath29)" x2="766" y1="445"/>
            <text x="730" xml:space="preserve" y="431" clip-path="url(#clipPath48)" stroke="none">4</text>
            <line clip-path="url(#clipPath49)" fill="none" x1="767" x2="766" y1="400" y2="392" stroke-dasharray="none"/>
            <line clip-path="url(#clipPath49)" fill="none" x1="766" x2="761" y1="392" y2="398" stroke-dasharray="none"/>
            <line y2="406" fill="none" x1="172" clip-path="url(#clipPath29)" x2="166" y1="466"/>
            <text x="140" xml:space="preserve" y="452" clip-path="url(#clipPath50)" stroke="none">2</text>
            <line clip-path="url(#clipPath51)" fill="none" x1="170" x2="166" y1="413" y2="406" stroke-dasharray="none"/>
            <line clip-path="url(#clipPath51)" fill="none" x1="166" x2="164" y1="406" y2="413" stroke-dasharray="none"/>
            <line y2="290" fill="none" x1="106" clip-path="url(#clipPath29)" x2="128" y1="251"/>
            <text x="90" xml:space="preserve" y="279" clip-path="url(#clipPath52)" stroke="none">3</text>
            <line clip-path="url(#clipPath53)" fill="none" x1="122" x2="128" y1="285" y2="290" stroke-dasharray="none"/>
            <line clip-path="url(#clipPath53)" fill="none" x1="128" x2="127" y1="290" y2="282" stroke-dasharray="none"/>
            <line y2="320" fill="none" x1="146" clip-path="url(#clipPath29)" x2="420" y1="224"/>
            <text x="270" xml:space="preserve" y="294" clip-path="url(#clipPath54)" stroke="none">2</text>
            <line clip-path="url(#clipPath55)" fill="none" x1="412" x2="420" y1="321" y2="320" stroke-dasharray="none"/>
            <line clip-path="url(#clipPath55)" fill="none" x1="420" x2="414" y1="320" y2="315" stroke-dasharray="none"/>
            <line y2="401" fill="none" x1="493" clip-path="url(#clipPath29)" x2="493" y1="455"/>
            <text x="465" xml:space="preserve" y="439" clip-path="url(#clipPath56)" stroke="none">1</text>
            <line clip-path="url(#clipPath57)" fill="none" x1="496" x2="493" y1="408" y2="401" stroke-dasharray="none"/>
            <line clip-path="url(#clipPath57)" fill="none" x1="493" x2="490" y1="401" y2="408" stroke-dasharray="none"/>
        </g>
        <g fill="rgb(69,69,69)" font-size="15px" stroke-width="2.1" font-family="'Ubuntu'" stroke-linecap="butt" stroke="rgb(69,69,69)">
            <line y2="515" fill="none" x1="810" clip-path="url(#clipPath29)" x2="970" y1="392"/>
            <text fill="black" x="898" xml:space="preserve" y="424" clip-path="url(#clipPath58)" stroke="none">startToFinish</text>
            <line y2="515" fill="none" x1="963" clip-path="url(#clipPath59)" x2="970" y1="513"/>
            <line y2="508" fill="none" x1="970" clip-path="url(#clipPath59)" x2="966" y1="515"/>
            <line clip-path="url(#clipPath29)" fill="none" x1="1070" x2="1070" y1="311" y2="485" stroke-dasharray="5,5" stroke="rgb(252,175,62)"/>
            <line clip-path="url(#clipPath60)" fill="none" x1="1067" x2="1070" y1="478" y2="485" stroke="rgb(252,175,62)"/>
            <line clip-path="url(#clipPath60)" fill="none" x1="1070" x2="1073" y1="485" y2="478" stroke="rgb(252,175,62)"/>
        </g>
        <g stroke-linecap="butt" font-size="15px" fill="rgb(39,76,114)" font-family="'Ubuntu'" stroke-dasharray="2.1,2.1" stroke="rgb(39,76,114)" font-weight="bold" stroke-width="2.1">
            <line y2="581" fill="none" x1="815" clip-path="url(#clipPath29)" x2="1050" y1="645"/>
            <text x="925" xml:space="preserve" y="608" clip-path="url(#clipPath61)" stroke="none">5</text>
            <line clip-path="url(#clipPath62)" fill="none" x1="1044" x2="1050" y1="586" y2="581" stroke-dasharray="none"/>
            <line clip-path="url(#clipPath62)" fill="none" x1="1050" x2="1042" y1="581" y2="580" stroke-dasharray="none"/>
        </g>
    </g>
</svg>
