<?xml version="1.0" encoding="UTF-8" standalone="no"?>
<!DOCTYPE svg PUBLIC "-//W3C//DTD SVG 1.0//EN"
 "http://www.w3.org/TR/2001/REC-SVG-20010904/DTD/svg10.dtd" [
 <!ATTLIST svg xmlns:xlink CDATA #FIXED "http://www.w3.org/1999/xlink">
]>
<!-- Generated by dot version 2.7.20060111.0540 (Fri Sep  3 08:16:42 UTC 2010)
     For user: (gss2027) SABLAYROLLES Guillaume -->
<!-- Title: Sujet_TD Pages: 1 -->
<svg width="678px" height="433px"
 viewBox = "0 0 509 325"
 xmlns="http://www.w3.org/2000/svg" xmlns:xlink="http://www.w3.org/1999/xlink">
<g id="graph0" class="graph" style="font-family:Times-Roman;font-size:14.00;">
<title>Sujet_TD</title>
<polygon style="fill:white;stroke:white;" points="0,325 0,-11 520,-11 520,325 0,325"/>
<text text-anchor="middle" x="255" y="311">Sujet_TD</text>
<!-- Conception -->
<g id="node1" class="node"><title>Conception</title>
<ellipse style="fill:none;stroke:black;" cx="235" cy="29" rx="45" ry="18"/>
<text text-anchor="middle" x="235" y="36">Conception</text>
</g>
<!-- RedactionDoc -->
<g id="node3" class="node"><title>RedactionDoc</title>
<ellipse style="fill:none;stroke:black;" cx="76" cy="147" rx="53" ry="18"/>
<text text-anchor="middle" x="76" y="153">RedactionDoc</text>
</g>
<!-- Conception&#45;&gt;RedactionDoc -->
<g id="edge2" class="edge"><title>Conception&#45;&gt;RedactionDoc</title>
<path style="fill:none;stroke:black;" d="M176,36C125,43 55,56 37,77 29,88 33,101 41,113"/>
<polygon style="fill:black;stroke:black;" points="49,124 47,109 47,121 41,113 47,121 36,117 49,124 49,124"/>
<text text-anchor="middle" x="97" y="95">finishToFinish</text>
</g>
<!-- Conception&#45;&gt;RedactionDoc -->
<g id="edge4" class="edge"><title>Conception&#45;&gt;RedactionDoc</title>
<path style="fill:none;stroke:black;" d="M207,51C196,59 184,68 172,77 161,87 159,91 147,99 139,105 129,112 121,117"/>
<polygon style="fill:black;stroke:black;" points="109,125 124,123 112,123 120,117 112,123 117,113 109,125 109,125"/>
<text text-anchor="middle" x="221" y="95">startToStart</text>
</g>
<!-- Programmation -->
<g id="node6" class="node"><title>Programmation</title>
<ellipse style="fill:none;stroke:black;" cx="289" cy="147" rx="56" ry="18"/>
<text text-anchor="middle" x="289" y="153">Programmation</text>
</g>
<!-- Conception&#45;&gt;Programmation -->
<g id="edge6" class="edge"><title>Conception&#45;&gt;Programmation</title>
<path style="fill:none;stroke:black;" d="M251,53C256,60 261,69 265,77 271,88 275,99 279,109"/>
<polygon style="fill:black;stroke:black;" points="283,123 284,108 281,119 279,109 281,119 273,112 283,123 283,123"/>
<text text-anchor="middle" x="323" y="95">finishToStart</text>
</g>
<!-- Redactiontests -->
<g id="node8" class="node"><title>Redactiontests</title>
<ellipse style="fill:none;stroke:black;" cx="351" cy="264" rx="53" ry="18"/>
<text text-anchor="middle" x="351" y="271">Redactiontests</text>
</g>
<!-- Conception&#45;&gt;Redactiontests -->
<g id="edge8" class="edge"><title>Conception&#45;&gt;Redactiontests</title>
<path style="fill:none;stroke:black;" d="M287,41C323,51 365,63 377,77 417,125 420,159 397,216 395,221 392,227 388,232"/>
<polygon style="fill:black;stroke:black;" points="379,241 392,236 381,239 388,232 381,239 384,228 379,241 379,241"/>
<text text-anchor="middle" x="455" y="153">startToStart</text>
</g>
<!-- Programmation&#45;&gt;Redactiontests -->
<g id="edge10" class="edge"><title>Programmation&#45;&gt;Redactiontests</title>
<path style="fill:none;stroke:black;" d="M284,171C281,185 281,203 288,216 292,223 296,229 301,235"/>
<polygon style="fill:black;stroke:black;" points="312,243 305,229 309,240 301,235 309,240 297,240 312,243 312,243"/>
<text text-anchor="middle" x="343" y="212">finishToFinish</text>
</g>
</g>
</svg>
